<svg xmlns="http://www.w3.org/2000/svg" xmlns:xlink="http://www.w3.org/1999/xlink" contentStyleType="text/css" data-diagram-type="ACTIVITY" height="513px" preserveAspectRatio="none" style="width:1293px;height:513px;background:#FFFFFF;" version="1.1" viewBox="0 0 1293 513" width="1293px" zoomAndPan="magnify"><defs/><g><rect fill="transparent" height="20.9531" style="stroke:transparent;stroke-width:1;" width="1260.6226" x="15" y="12.7451"/><ellipse cx="425.2866" cy="48.6982" fill="#222222" rx="10" ry="10" style="stroke:#222222;stroke-width:1;"/><rect fill="#F1F1F1" height="33.9688" rx="12.5" ry="12.5" style="stroke:#181818;stroke-width:0.5;" width="241.7188" x="304.4272" y="78.6982"/><text fill="#000000" font-family="sans-serif" font-size="12" lengthAdjust="spacing" textLength="217.9043" x="318.2417" y="99.8369">&#1050;&#1086;&#1088;&#1080;&#1089;&#1090;&#1091;&#1074;&#1072;&#1095; &#1074;&#1110;&#1076;&#1082;&#1088;&#1080;&#1074;&#1072;&#1108; &#1086;&#1087;&#1080;&#1090;&#1091;&#1074;&#1072;&#1085;&#1085;&#1103;</text><path d="M20,122.667 L20,178.0654 A0,0 0 0 0 20,178.0654 L283.6011,178.0654 A0,0 0 0 0 283.6011,178.0654 L283.6011,154.3662 L303.6011,150.3662 L283.6011,146.3662 L283.6011,132.667 L273.6011,122.667 L20,122.667 A0,0 0 0 0 20,122.667 " fill="#FFAAAA" style="stroke:#181818;stroke-width:0.5;"/><path d="M273.6011,122.667 L273.6011,132.667 L283.6011,132.667 L273.6011,122.667 " fill="#FFAAAA" style="stroke:#181818;stroke-width:0.5;"/><text fill="#000000" font-family="sans-serif" font-size="13" font-weight="bold" lengthAdjust="spacing" textLength="223.7168" x="26" y="139.7339">&#1052;&#1086;&#1078;&#1083;&#1080;&#1074;&#1072; &#1074;&#1080;&#1082;&#1083;&#1102;&#1095;&#1085;&#1072; &#1089;&#1080;&#1090;&#1091;&#1072;&#1094;&#1110;&#1103;:</text><text fill="#000000" font-family="sans-serif" font-size="13" font-weight="bold" lengthAdjust="spacing" textLength="242.6011" x="26" y="154.8667">&#1042;&#1110;&#1076;&#1089;&#1091;&#1090;&#1085;&#1110;&#1081; &#1076;&#1086;&#1089;&#1090;&#1091;&#1087; &#1076;&#1086; &#1086;&#1087;&#1080;&#1090;&#1091;&#1074;&#1072;&#1085;&#1085;&#1103;</text><text fill="#000000" font-family="sans-serif" font-size="13" font-weight="bold" lengthAdjust="spacing" textLength="185.0405" x="26" y="169.9995">(AccessDeniedException)</text><rect fill="#F1F1F1" height="33.9688" rx="12.5" ry="12.5" style="stroke:#181818;stroke-width:0.5;" width="243.3711" x="303.6011" y="133.3818"/><text fill="#000000" font-family="sans-serif" font-size="12" lengthAdjust="spacing" textLength="219.5566" x="317.4155" y="154.5205">&#1050;&#1086;&#1088;&#1080;&#1089;&#1090;&#1091;&#1074;&#1072;&#1095; &#1074;&#1110;&#1076;&#1087;&#1086;&#1074;&#1110;&#1076;&#1072;&#1108; &#1085;&#1072; &#1087;&#1080;&#1090;&#1072;&#1085;&#1085;&#1103;</text><rect fill="#F1F1F1" height="33.9688" rx="12.5" ry="12.5" style="stroke:#181818;stroke-width:0.5;" width="456.3359" x="197.1187" y="425.3701"/><text fill="#000000" font-family="sans-serif" font-size="12" lengthAdjust="spacing" textLength="432.5215" x="210.9331" y="446.5088">&#1050;&#1086;&#1088;&#1080;&#1089;&#1090;&#1091;&#1074;&#1072;&#1095; &#1086;&#1090;&#1088;&#1080;&#1084;&#1091;&#1108; &#1087;&#1086;&#1074;&#1110;&#1076;&#1086;&#1084;&#1083;&#1077;&#1085;&#1085;&#1103; &#1087;&#1088;&#1086; &#1091;&#1089;&#1087;&#1110;&#1096;&#1085;&#1077; &#1087;&#1086;&#1076;&#1072;&#1085;&#1085;&#1103; &#1074;&#1110;&#1076;&#1087;&#1086;&#1074;&#1110;&#1076;&#1077;&#1081;</text><ellipse cx="425.2866" cy="490.3389" fill="transparent" rx="11" ry="11" style="stroke:#222222;stroke-width:1;"/><ellipse cx="425.2866" cy="490.3389" fill="#222222" rx="6" ry="6" style="stroke:#222222;stroke-width:1;"/><line style="stroke:#000000;stroke-width:1.5;" x1="15" x2="15" y1="12.7451" y2="501.3389"/><rect fill="#F1F1F1" height="33.9688" rx="12.5" ry="12.5" style="stroke:#181818;stroke-width:0.5;" width="276.793" x="691.4653" y="198.0654"/><text fill="#000000" font-family="sans-serif" font-size="12" lengthAdjust="spacing" textLength="252.9785" x="705.2798" y="219.2041">&#1057;&#1080;&#1089;&#1090;&#1077;&#1084;&#1072; &#1086;&#1090;&#1088;&#1080;&#1084;&#1091;&#1108; &#1074;&#1110;&#1076;&#1087;&#1086;&#1074;&#1110;&#1076;&#1110; &#1082;&#1086;&#1088;&#1080;&#1089;&#1090;&#1091;&#1074;&#1072;&#1095;&#1072;</text><path d="M1016.269,242.0342 L1016.269,265.7334 L996.269,269.7334 L1016.269,273.7334 L1016.269,297.4326 A0,0 0 0 0 1016.269,297.4326 L1268.7617,297.4326 A0,0 0 0 0 1268.7617,297.4326 L1268.7617,252.0342 L1258.7617,242.0342 L1016.269,242.0342 A0,0 0 0 0 1016.269,242.0342 " fill="#FFAAAA" style="stroke:#181818;stroke-width:0.5;"/><path d="M1258.7617,242.0342 L1258.7617,252.0342 L1268.7617,252.0342 L1258.7617,242.0342 " fill="#FFAAAA" style="stroke:#181818;stroke-width:0.5;"/><text fill="#000000" font-family="sans-serif" font-size="13" font-weight="bold" lengthAdjust="spacing" textLength="223.7168" x="1022.269" y="259.1011">&#1052;&#1086;&#1078;&#1083;&#1080;&#1074;&#1072; &#1074;&#1080;&#1082;&#1083;&#1102;&#1095;&#1085;&#1072; &#1089;&#1080;&#1090;&#1091;&#1072;&#1094;&#1110;&#1103;:</text><text fill="#000000" font-family="sans-serif" font-size="13" font-weight="bold" lengthAdjust="spacing" textLength="231.4927" x="1022.269" y="274.2339">&#1058;&#1077;&#1093;&#1085;&#1110;&#1095;&#1085;&#1110; &#1087;&#1088;&#1086;&#1073;&#1083;&#1077;&#1084;&#1080; &#1079; &#1087;&#1086;&#1076;&#1072;&#1085;&#1085;&#1103;&#1084;</text><text fill="#000000" font-family="sans-serif" font-size="13" font-weight="bold" lengthAdjust="spacing" textLength="212.564" x="1022.269" y="289.3667">(SubmissionFailedException)</text><rect fill="#F1F1F1" height="33.9688" rx="12.5" ry="12.5" style="stroke:#181818;stroke-width:0.5;" width="332.8145" x="663.4546" y="252.749"/><text fill="#000000" font-family="sans-serif" font-size="12" lengthAdjust="spacing" textLength="309" x="677.269" y="273.8877">&#1057;&#1080;&#1089;&#1090;&#1077;&#1084;&#1072; &#1087;&#1077;&#1088;&#1077;&#1074;&#1110;&#1088;&#1103;&#1108; &#1085;&#1072;&#1103;&#1074;&#1085;&#1110;&#1089;&#1090;&#1100; &#1090;&#1077;&#1093;&#1085;&#1110;&#1095;&#1085;&#1080;&#1093; &#1087;&#1088;&#1086;&#1073;&#1083;&#1077;&#1084;</text><rect fill="#F1F1F1" height="33.9688" rx="12.5" ry="12.5" style="stroke:#181818;stroke-width:0.5;" width="276.6641" x="691.5298" y="317.4326"/><text fill="#000000" font-family="sans-serif" font-size="12" lengthAdjust="spacing" textLength="252.8496" x="705.3442" y="338.5713">&#1057;&#1080;&#1089;&#1090;&#1077;&#1084;&#1072; &#1079;&#1073;&#1077;&#1088;&#1110;&#1075;&#1072;&#1108; &#1074;&#1110;&#1076;&#1087;&#1086;&#1074;&#1110;&#1076;&#1110; &#1082;&#1086;&#1088;&#1080;&#1089;&#1090;&#1091;&#1074;&#1072;&#1095;&#1072;</text><rect fill="#F1F1F1" height="33.9688" rx="12.5" ry="12.5" style="stroke:#181818;stroke-width:0.5;" width="219.8867" x="719.9185" y="371.4014"/><text fill="#000000" font-family="sans-serif" font-size="12" lengthAdjust="spacing" textLength="196.0723" x="733.7329" y="392.54">&#1057;&#1080;&#1089;&#1090;&#1077;&#1084;&#1072; &#1079;&#1072;&#1074;&#1077;&#1088;&#1096;&#1091;&#1108; &#1086;&#1087;&#1080;&#1090;&#1091;&#1074;&#1072;&#1085;&#1085;&#1103;</text><line style="stroke:#000000;stroke-width:1.5;" x1="657.4546" x2="657.4546" y1="12.7451" y2="501.3389"/><line style="stroke:#000000;stroke-width:1.5;" x1="1273.7617" x2="1273.7617" y1="12.7451" y2="501.3389"/><line style="stroke:#181818;stroke-width:1;" x1="425.2866" x2="425.2866" y1="58.6982" y2="78.6982"/><polygon fill="#181818" points="421.2866,68.6982,425.2866,78.6982,429.2866,68.6982,425.2866,72.6982" style="stroke:#181818;stroke-width:1;"/><line style="stroke:#181818;stroke-width:1;" x1="425.2866" x2="425.2866" y1="112.667" y2="133.3818"/><polygon fill="#181818" points="421.2866,123.3818,425.2866,133.3818,429.2866,123.3818,425.2866,127.3818" style="stroke:#181818;stroke-width:1;"/><line style="stroke:#181818;stroke-width:1;" x1="425.2866" x2="425.2866" y1="459.3389" y2="479.3389"/><polygon fill="#181818" points="421.2866,469.3389,425.2866,479.3389,429.2866,469.3389,425.2866,473.3389" style="stroke:#181818;stroke-width:1;"/><line style="stroke:#181818;stroke-width:1;" x1="829.8618" x2="829.8618" y1="232.0342" y2="252.749"/><polygon fill="#181818" points="825.8618,242.749,829.8618,252.749,833.8618,242.749,829.8618,246.749" style="stroke:#181818;stroke-width:1;"/><line style="stroke:#181818;stroke-width:1;" x1="829.8618" x2="829.8618" y1="286.7178" y2="317.4326"/><polygon fill="#181818" points="825.8618,307.4326,829.8618,317.4326,833.8618,307.4326,829.8618,311.4326" style="stroke:#181818;stroke-width:1;"/><line style="stroke:#181818;stroke-width:1;" x1="829.8618" x2="829.8618" y1="351.4014" y2="371.4014"/><polygon fill="#181818" points="825.8618,361.4014,829.8618,371.4014,833.8618,361.4014,829.8618,365.4014" style="stroke:#181818;stroke-width:1;"/><line style="stroke:#181818;stroke-width:1;" x1="425.2866" x2="425.2866" y1="167.3506" y2="183.0654"/><line style="stroke:#181818;stroke-width:1;" x1="425.2866" x2="829.8618" y1="183.0654" y2="183.0654"/><line style="stroke:#181818;stroke-width:1;" x1="829.8618" x2="829.8618" y1="183.0654" y2="198.0654"/><polygon fill="#181818" points="825.8618,188.0654,829.8618,198.0654,833.8618,188.0654,829.8618,192.0654" style="stroke:#181818;stroke-width:1;"/><line style="stroke:#181818;stroke-width:1;" x1="829.8618" x2="829.8618" y1="405.3701" y2="410.3701"/><line style="stroke:#181818;stroke-width:1;" x1="829.8618" x2="425.2866" y1="410.3701" y2="410.3701"/><line style="stroke:#181818;stroke-width:1;" x1="425.2866" x2="425.2866" y1="410.3701" y2="425.3701"/><polygon fill="#181818" points="421.2866,415.3701,425.2866,425.3701,429.2866,415.3701,425.2866,419.3701" style="stroke:#181818;stroke-width:1;"/><text fill="#000000" font-family="sans-serif" font-size="18" lengthAdjust="spacing" textLength="206.8857" x="232.7844" y="29.4531">&#1050;&#1086;&#1088;&#1080;&#1089;&#1090;&#1091;&#1074;&#1072;&#1095; (&#1045;&#1082;&#1089;&#1087;&#1077;&#1088;&#1090;)</text><text fill="#000000" font-family="sans-serif" font-size="18" lengthAdjust="spacing" textLength="80.332" x="925.4421" y="29.4531">&#1057;&#1080;&#1089;&#1090;&#1077;&#1084;&#1072;</text><!--SRC=[hPFBJi9058RtVOf9tC3AFH0I4_K5V08kHPjW8RGcBbXm2SB2sCHW5yQDFa55AlVo2kUyaVzCGIwjbqHdDPsU_p_dV3EdJeyKS8F6tEGMjsb07dT5WXveoarQaiyDRYNhccNdQhQM4h7XD62NXb3WXphg2meW7gzZQ44BTj8_w9SGXJlbi21FX2OR0ysisBeewoLR79HAEInDO6NoMNg2-frcOGMmn6PACxxZhd92Ds4v7j-moqugSvZFVehlPLhKr4Qo1VOJWIg2LP5BzH7RqhP9ugXGq2thM3SDlNXoNT2hjb4naof4Duj2bgvfTNeEkoUVvkJL9PET4-H13aboZdBw4JZi2ZGMWKXUEiPANI0-eCH5EYkix423DfN-LiXmxgW3oMhC7GWX2-WLFE6qvbuppY_-6VpBTchPsavY6WiQ2TNxS8sSvZlGpwxobuPbWVHfpYX_0puAPuGqydsxz1Q-kB-G7g6-WRBhXTSMEm2u_j_DsrUJilSsDYCJe0p9J2LQOHG8WYdWzd3kxu6CZfrF4vHesPNg1m00]--></g></svg>