<svg xmlns="http://www.w3.org/2000/svg" xmlns:xlink="http://www.w3.org/1999/xlink" contentStyleType="text/css" data-diagram-type="DESCRIPTION" height="705px" preserveAspectRatio="none" style="width:841px;height:705px;background:#FFFFFF;" version="1.1" viewBox="0 0 841 705" width="841px" zoomAndPan="magnify"><defs/><g><!--entity Permission--><g id="elem_Permission"><ellipse cx="281.7374" cy="667.78" fill="#14F749" rx="12" ry="12" style="stroke:#181818;stroke-width:0.5;"/><line style="stroke:#181818;stroke-width:0.5;" x1="269.7374" x2="293.7374" y1="681.78" y2="681.78"/><text fill="#000000" font-family="sans-serif" font-size="14" lengthAdjust="spacing" textLength="76.2549" x="243.61" y="696.7751">Permission</text></g><!--entity Permission.id--><g id="elem_Permission.id"><ellipse cx="52.7407" cy="559.49" fill="#F1F1F1" rx="12" ry="12" style="stroke:#181818;stroke-width:0.5;"/><line style="stroke:#181818;stroke-width:0.5;" x1="40.7407" x2="64.7407" y1="573.49" y2="573.49"/><text fill="#000000" font-family="sans-serif" font-size="14" lengthAdjust="spacing" textLength="93.4814" x="6" y="588.4851">Permission.id</text></g><!--entity Permission.name--><g id="elem_Permission.name"><ellipse cx="194.7441" cy="559.49" fill="#F1F1F1" rx="12" ry="12" style="stroke:#181818;stroke-width:0.5;"/><line style="stroke:#181818;stroke-width:0.5;" x1="182.7441" x2="206.7441" y1="573.49" y2="573.49"/><text fill="#000000" font-family="sans-serif" font-size="14" lengthAdjust="spacing" textLength="120.4082" x="134.54" y="588.4851">Permission.name</text></g><!--entity Permission.description--><g id="elem_Permission.description"><ellipse cx="368.7429" cy="559.49" fill="#F1F1F1" rx="12" ry="12" style="stroke:#181818;stroke-width:0.5;"/><line style="stroke:#181818;stroke-width:0.5;" x1="356.7429" x2="380.7429" y1="573.49" y2="573.49"/><text fill="#000000" font-family="sans-serif" font-size="14" lengthAdjust="spacing" textLength="158.5459" x="289.47" y="588.4851">Permission.description</text></g><!--entity Permission.role_permission--><g id="elem_Permission.role_permission"><ellipse cx="578.7443" cy="559.49" fill="#F1F1F1" rx="12" ry="12" style="stroke:#181818;stroke-width:0.5;"/><line style="stroke:#181818;stroke-width:0.5;" x1="566.7443" x2="590.7443" y1="573.49" y2="573.49"/><text fill="#000000" font-family="sans-serif" font-size="14" lengthAdjust="spacing" textLength="191.2285" x="483.13" y="588.4851">Permission.role_permission</text></g><!--entity Role--><g id="elem_Role"><ellipse cx="578.74" cy="451.19" fill="#0C56BD" rx="12" ry="12" style="stroke:#181818;stroke-width:0.5;"/><line style="stroke:#181818;stroke-width:0.5;" x1="566.74" x2="590.74" y1="465.19" y2="465.19"/><text fill="#000000" font-family="sans-serif" font-size="14" lengthAdjust="spacing" textLength="30.7959" x="563.3421" y="480.1851">Role</text></g><!--entity Role.id--><g id="elem_Role.id"><ellipse cx="524.7412" cy="342.89" fill="#F1F1F1" rx="12" ry="12" style="stroke:#181818;stroke-width:0.5;"/><line style="stroke:#181818;stroke-width:0.5;" x1="512.7412" x2="536.7412" y1="356.89" y2="356.89"/><text fill="#000000" font-family="sans-serif" font-size="14" lengthAdjust="spacing" textLength="48.0225" x="500.73" y="371.8851">Role.id</text></g><!--entity Role.user_role--><g id="elem_Role.user_role"><ellipse cx="633.7432" cy="342.89" fill="#F1F1F1" rx="12" ry="12" style="stroke:#181818;stroke-width:0.5;"/><line style="stroke:#181818;stroke-width:0.5;" x1="621.7432" x2="645.7432" y1="356.89" y2="356.89"/><text fill="#000000" font-family="sans-serif" font-size="14" lengthAdjust="spacing" textLength="99.6064" x="583.94" y="371.8851">Role.user_role</text></g><!--entity Role.description--><g id="elem_Role.description"><ellipse cx="774.7435" cy="342.89" fill="#F1F1F1" rx="12" ry="12" style="stroke:#181818;stroke-width:0.5;"/><line style="stroke:#181818;stroke-width:0.5;" x1="762.7435" x2="786.7435" y1="356.89" y2="356.89"/><text fill="#000000" font-family="sans-serif" font-size="14" lengthAdjust="spacing" textLength="113.0869" x="718.2" y="371.8851">Role.description</text></g><!--entity Role.name--><g id="elem_Role.name"><ellipse cx="428.7446" cy="342.89" fill="#F1F1F1" rx="12" ry="12" style="stroke:#181818;stroke-width:0.5;"/><line style="stroke:#181818;stroke-width:0.5;" x1="416.7446" x2="440.7446" y1="356.89" y2="356.89"/><text fill="#000000" font-family="sans-serif" font-size="14" lengthAdjust="spacing" textLength="74.9492" x="391.27" y="371.8851">Role.name</text></g><!--entity User--><g id="elem_User"><ellipse cx="610.74" cy="234.6" fill="#BD0C65" rx="12" ry="12" style="stroke:#181818;stroke-width:0.5;"/><line style="stroke:#181818;stroke-width:0.5;" x1="598.74" x2="622.74" y1="248.6" y2="248.6"/><text fill="#000000" font-family="sans-serif" font-size="14" lengthAdjust="spacing" textLength="31.9102" x="594.7849" y="263.5951">User</text></g><!--entity User.id--><g id="elem_User.id"><ellipse cx="561.7384" cy="126.3" fill="#F1F1F1" rx="12" ry="12" style="stroke:#181818;stroke-width:0.5;"/><line style="stroke:#181818;stroke-width:0.5;" x1="549.7384" x2="573.7384" y1="140.3" y2="140.3"/><text fill="#000000" font-family="sans-serif" font-size="14" lengthAdjust="spacing" textLength="49.1367" x="537.17" y="155.2951">User.id</text></g><!--entity User.name--><g id="elem_User.name"><ellipse cx="659.7417" cy="126.3" fill="#F1F1F1" rx="12" ry="12" style="stroke:#181818;stroke-width:0.5;"/><line style="stroke:#181818;stroke-width:0.5;" x1="647.7417" x2="671.7417" y1="140.3" y2="140.3"/><text fill="#000000" font-family="sans-serif" font-size="14" lengthAdjust="spacing" textLength="76.0635" x="621.71" y="155.2951">User.name</text></g><!--entity User.lastname--><g id="elem_User.lastname"><ellipse cx="783.7377" cy="126.3" fill="#F1F1F1" rx="12" ry="12" style="stroke:#181818;stroke-width:0.5;"/><line style="stroke:#181818;stroke-width:0.5;" x1="771.7377" x2="795.7377" y1="140.3" y2="140.3"/><text fill="#000000" font-family="sans-serif" font-size="14" lengthAdjust="spacing" textLength="101.3154" x="733.08" y="155.2951">User.lastname</text></g><!--entity User.password--><g id="elem_User.password"><ellipse cx="450.7361" cy="126.3" fill="#F1F1F1" rx="12" ry="12" style="stroke:#181818;stroke-width:0.5;"/><line style="stroke:#181818;stroke-width:0.5;" x1="438.7361" x2="462.7361" y1="140.3" y2="140.3"/><text fill="#000000" font-family="sans-serif" font-size="14" lengthAdjust="spacing" textLength="103.0723" x="399.2" y="155.2951">User.password</text></g><!--entity Survey--><g id="elem_Survey"><ellipse cx="331.7396" cy="342.89" fill="#E9D201" rx="12" ry="12" style="stroke:#181818;stroke-width:0.5;"/><line style="stroke:#181818;stroke-width:0.5;" x1="319.7396" x2="343.7396" y1="356.89" y2="356.89"/><text fill="#000000" font-family="sans-serif" font-size="14" lengthAdjust="spacing" textLength="48.6992" x="307.39" y="371.8851">Survey</text></g><!--entity Survey.id--><g id="elem_Survey.id"><ellipse cx="354.7429" cy="234.6" fill="#F1F1F1" rx="12" ry="12" style="stroke:#181818;stroke-width:0.5;"/><line style="stroke:#181818;stroke-width:0.5;" x1="342.7429" x2="366.7429" y1="248.6" y2="248.6"/><text fill="#000000" font-family="sans-serif" font-size="14" lengthAdjust="spacing" textLength="65.9258" x="321.78" y="263.5951">Survey.id</text></g><!--entity Servey.user_id--><g id="elem_Servey.user_id"><ellipse cx="713.7411" cy="234.6" fill="#F1F1F1" rx="12" ry="12" style="stroke:#181818;stroke-width:0.5;"/><line style="stroke:#181818;stroke-width:0.5;" x1="701.7411" x2="725.7411" y1="248.6" y2="248.6"/><text fill="#000000" font-family="sans-serif" font-size="14" lengthAdjust="spacing" textLength="103.2021" x="662.14" y="263.5951">Servey.user_id</text></g><!--entity Survey.name--><g id="elem_Survey.name"><ellipse cx="468.7363" cy="234.6" fill="#F1F1F1" rx="12" ry="12" style="stroke:#181818;stroke-width:0.5;"/><line style="stroke:#181818;stroke-width:0.5;" x1="456.7363" x2="480.7363" y1="248.6" y2="248.6"/><text fill="#000000" font-family="sans-serif" font-size="14" lengthAdjust="spacing" textLength="92.8525" x="422.31" y="263.5951">Survey.name</text></g><!--entity Survey.description--><g id="elem_Survey.description"><ellipse cx="93.7451" cy="234.6" fill="#F1F1F1" rx="12" ry="12" style="stroke:#181818;stroke-width:0.5;"/><line style="stroke:#181818;stroke-width:0.5;" x1="81.7451" x2="105.7451" y1="248.6" y2="248.6"/><text fill="#000000" font-family="sans-serif" font-size="14" lengthAdjust="spacing" textLength="130.9902" x="28.25" y="263.5951">Survey.description</text></g><!--entity Servey.result--><g id="elem_Servey.result"><ellipse cx="240.7423" cy="234.6" fill="#F1F1F1" rx="12" ry="12" style="stroke:#181818;stroke-width:0.5;"/><line style="stroke:#181818;stroke-width:0.5;" x1="228.7423" x2="252.7423" y1="248.6" y2="248.6"/><text fill="#000000" font-family="sans-serif" font-size="14" lengthAdjust="spacing" textLength="92.8047" x="194.34" y="263.5951">Servey.result</text></g><!--entity Result--><g id="elem_Result"><ellipse cx="240.7434" cy="126.3" fill="#00FF61" rx="12" ry="12" style="stroke:#181818;stroke-width:0.5;"/><line style="stroke:#181818;stroke-width:0.5;" x1="228.7434" x2="252.7434" y1="140.3" y2="140.3"/><text fill="#000000" font-family="sans-serif" font-size="14" lengthAdjust="spacing" textLength="43.8867" x="218.8" y="155.2951">Result</text></g><!--entity Result.id--><g id="elem_Result.id"><ellipse cx="111.7366" cy="18" fill="#F1F1F1" rx="12" ry="12" style="stroke:#181818;stroke-width:0.5;"/><line style="stroke:#181818;stroke-width:0.5;" x1="99.7366" x2="123.7366" y1="32" y2="32"/><text fill="#000000" font-family="sans-serif" font-size="14" lengthAdjust="spacing" textLength="61.1133" x="81.18" y="46.9951">Result.id</text></g><!--entity Result.description--><g id="elem_Result.description"><ellipse cx="240.7389" cy="18" fill="#F1F1F1" rx="12" ry="12" style="stroke:#181818;stroke-width:0.5;"/><line style="stroke:#181818;stroke-width:0.5;" x1="228.7389" x2="252.7389" y1="32" y2="32"/><text fill="#000000" font-family="sans-serif" font-size="14" lengthAdjust="spacing" textLength="126.1777" x="177.65" y="46.9951">Result.description</text></g><!--entity Result.name--><g id="elem_Result.name"><ellipse cx="382.74" cy="18" fill="#F1F1F1" rx="12" ry="12" style="stroke:#181818;stroke-width:0.5;"/><line style="stroke:#181818;stroke-width:0.5;" x1="370.74" x2="394.74" y1="32" y2="32"/><text fill="#000000" font-family="sans-serif" font-size="14" lengthAdjust="spacing" textLength="88.04" x="338.72" y="46.9951">Result.name</text></g><!--link Permission.id to Permission--><g id="link_Permission.id_Permission"><path d="M99.91,590.53 C142.33,610.22 192.9948,633.7389 232.4748,652.0589 " fill="transparent" id="Permission.id-to-Permission" style="stroke:#181818;stroke-width:1;"/><polygon fill="#181818" points="243.36,657.11,239.6011,650.9561,232.4748,652.0589,236.2337,658.2129,243.36,657.11" style="stroke:#181818;stroke-width:1;"/></g><!--link Permission.name to Permission--><g id="link_Permission.name_Permission"><path d="M214.05,592.23 C228.47,609.84 240.478,624.5251 254.888,642.1251 " fill="transparent" id="Permission.name-to-Permission" style="stroke:#181818;stroke-width:1;"/><polygon fill="#181818" points="262.49,651.41,261.784,644.2335,254.888,642.1251,255.594,649.3016,262.49,651.41" style="stroke:#181818;stroke-width:1;"/></g><!--link Permission.description to Permission--><g id="link_Permission.description_Permission"><path d="M349.43,592.23 C335.02,609.84 323.002,624.5251 308.592,642.1251 " fill="transparent" id="Permission.description-to-Permission" style="stroke:#181818;stroke-width:1;"/><polygon fill="#181818" points="300.99,651.41,307.886,649.3016,308.592,642.1251,301.696,644.2335,300.99,651.41" style="stroke:#181818;stroke-width:1;"/></g><!--link Permission.role_permission to Permission--><g id="link_Permission.role_permission_Permission"><path d="M512.83,592.23 C453.7,613.39 380.2482,639.6765 331.5182,657.1165 " fill="transparent" id="Permission.role_permission-to-Permission" style="stroke:#181818;stroke-width:1;"/><polygon fill="#181818" points="320.22,661.16,327.217,662.9043,331.5182,657.1165,324.5213,655.3722,320.22,661.16" style="stroke:#181818;stroke-width:1;"/></g><!--link Role.id to Role--><g id="link_Role.id_Role"><path d="M536.73,375.63 C545.67,393.25 552.4155,406.5111 561.3555,424.1111 " fill="transparent" id="Role.id-to-Role" style="stroke:#181818;stroke-width:1;"/><polygon fill="#181818" points="566.79,434.81,567.639,427.6491,561.3555,424.1111,560.5064,431.2721,566.79,434.81" style="stroke:#181818;stroke-width:1;"/></g><!--link Role.user_role to Role--><g id="link_Role.user_role_Role"><path d="M621.53,375.63 C612.42,393.25 605.5362,406.553 596.4262,424.153 " fill="transparent" id="Role.user_role-to-Role" style="stroke:#181818;stroke-width:1;"/><polygon fill="#181818" points="590.91,434.81,597.2204,431.3202,596.4262,424.153,590.1158,427.6428,590.91,434.81" style="stroke:#181818;stroke-width:1;"/></g><!--link Role.description to Role--><g id="link_Role.description_Role"><path d="M731.24,375.63 C688.16,399 635.0188,427.8195 605.4588,443.8495 " fill="transparent" id="Role.description-to-Role" style="stroke:#181818;stroke-width:1;"/><polygon fill="#181818" points="594.91,449.57,602.0912,450.226,605.4588,443.8495,598.2776,443.1935,594.91,449.57" style="stroke:#181818;stroke-width:1;"/></g><!--link Role.name to Role--><g id="link_Role.name_Role"><path d="M462.03,375.63 C493.28,397.77 528.889,423.012 552.809,439.962 " fill="transparent" id="Role.name-to-Role" style="stroke:#181818;stroke-width:1;"/><polygon fill="#181818" points="562.6,446.9,560.0172,440.1673,552.809,439.962,555.3918,446.6947,562.6,446.9" style="stroke:#181818;stroke-width:1;"/></g><!--link Role to Permission.role_permission--><g id="link_Role_Permission.role_permission"><path d="M578.74,483.93 C578.74,501.54 578.74,525.51 578.74,543.11 " fill="transparent" id="Role-Permission.role_permission" style="stroke:#181818;stroke-width:1;"/></g><!--link User.id to User--><g id="link_User.id_User"><path d="M572.62,159.04 C580.74,176.65 586.7529,189.7238 594.8729,207.3238 " fill="transparent" id="User.id-to-User" style="stroke:#181818;stroke-width:1;"/><polygon fill="#181818" points="599.9,218.22,601.0185,211.0962,594.8729,207.3238,593.7544,214.4476,599.9,218.22" style="stroke:#181818;stroke-width:1;"/></g><!--link User.name to User--><g id="link_User.name_User"><path d="M648.87,159.04 C640.75,176.65 634.7271,189.7238 626.6071,207.3238 " fill="transparent" id="User.name-to-User" style="stroke:#181818;stroke-width:1;"/><polygon fill="#181818" points="621.58,218.22,627.7256,214.4476,626.6071,207.3238,620.4615,211.0962,621.58,218.22" style="stroke:#181818;stroke-width:1;"/></g><!--link User.lastname to User--><g id="link_User.lastname_User"><path d="M742.91,159.02 C715.01,175.34 677.33,197.78 644.74,218.6 C638.96,222.29 642.6468,219.6883 637.1168,223.4683 " fill="transparent" id="User.lastname-to-User" style="stroke:#181818;stroke-width:1;"/><polygon fill="#181818" points="627.21,230.24,634.4206,230.1564,637.1168,223.4683,629.9061,223.5519,627.21,230.24" style="stroke:#181818;stroke-width:1;"/></g><!--link User.password to User--><g id="link_User.password_User"><path d="M486.25,159.04 C519.95,181.42 559.0826,207.4328 584.3726,224.2228 " fill="transparent" id="User.password-to-User" style="stroke:#181818;stroke-width:1;"/><polygon fill="#181818" points="594.37,230.86,591.5837,224.2089,584.3726,224.2228,587.1589,230.8738,594.37,230.86" style="stroke:#181818;stroke-width:1;"/></g><!--link User to Role.user_role--><g id="link_User_Role.user_role"><path d="M615.85,267.33 C619.66,284.95 624.84,308.92 628.65,326.52 " fill="transparent" id="User-Role.user_role" style="stroke:#181818;stroke-width:1;"/></g><!--link Survey.id to Survey--><g id="link_Survey.id_Survey"><path d="M349.64,267.33 C345.82,284.95 343.1789,297.1917 339.3689,314.7917 " fill="transparent" id="Survey.id-to-Survey" style="stroke:#181818;stroke-width:1;"/><polygon fill="#181818" points="336.83,326.52,342.0089,321.5021,339.3689,314.7917,334.19,319.8095,336.83,326.52" style="stroke:#181818;stroke-width:1;"/></g><!--link Servey.user_id to Survey--><g id="link_Servey.user_id_Survey"><path d="M661.93,261.52 C655.83,263.43 649.66,265.26 643.74,266.89 C525.23,299.56 488.74,283.45 373.74,326.89 C367.98,329.07 372.624,326.265 367.084,329.225 " fill="transparent" id="Servey.user_id-to-Survey" style="stroke:#181818;stroke-width:1;"/><polygon fill="#181818" points="356.5,334.88,363.677,335.5805,367.084,329.225,359.907,328.5245,356.5,334.88" style="stroke:#181818;stroke-width:1;"/></g><!--link Survey.name to Survey--><g id="link_Survey.name_Survey"><path d="M438.34,267.33 C413.74,286.42 389.0213,305.6044 366.0513,323.4244 " fill="transparent" id="Survey.name-to-Survey" style="stroke:#181818;stroke-width:1;"/><polygon fill="#181818" points="356.57,330.78,363.7625,330.2627,366.0513,323.4244,358.8588,323.9418,356.57,330.78" style="stroke:#181818;stroke-width:1;"/></g><!--link Survey.description to Survey--><g id="link_Survey.description_Survey"><path d="M146.56,267.33 C196.55,289.66 258.4123,317.2983 296.1123,334.1283 " fill="transparent" id="Survey.description-to-Survey" style="stroke:#181818;stroke-width:1;"/><polygon fill="#181818" points="307.07,339.02,303.2217,332.9216,296.1123,334.1283,299.9606,340.2267,307.07,339.02" style="stroke:#181818;stroke-width:1;"/></g><!--link Servey.result to Survey--><g id="link_Servey.result_Survey"><path d="M260.94,267.33 C276.02,284.95 288.7252,299.8049 303.7952,317.4049 " fill="transparent" id="Servey.result-to-Survey" style="stroke:#181818;stroke-width:1;"/><polygon fill="#181818" points="311.6,326.52,310.736,319.3608,303.7952,317.4049,304.6592,324.5641,311.6,326.52" style="stroke:#181818;stroke-width:1;"/></g><!--link User to Servey.user_id--><g id="link_User_Servey.user_id"><path d="M627.24,242.74 C638.73,242.74 650.21,242.74 661.7,242.74 " fill="transparent" id="User-Servey.user_id" style="stroke:#181818;stroke-width:1;"/></g><!--link Result.id to Result--><g id="link_Result.id_Result"><path d="M140.37,50.74 C163.97,70.19 187.718,89.7602 209.338,107.5702 " fill="transparent" id="Result.id-to-Result" style="stroke:#181818;stroke-width:1;"/><polygon fill="#181818" points="218.6,115.2,216.5123,108.2977,209.338,107.5702,211.4257,114.4724,218.6,115.2" style="stroke:#181818;stroke-width:1;"/></g><!--link Result.description to Result--><g id="link_Result.description_Result"><path d="M240.74,50.74 C240.74,68.36 240.74,80.32 240.74,97.92 " fill="transparent" id="Result.description-to-Result" style="stroke:#181818;stroke-width:1;"/><polygon fill="#181818" points="240.74,109.92,244.74,103.92,240.74,97.92,236.74,103.92,240.74,109.92" style="stroke:#181818;stroke-width:1;"/></g><!--link Result.name to Result--><g id="link_Result.name_Result"><path d="M351.23,50.74 C324.43,70.8 296.2263,91.9084 272.5163,109.6584 " fill="transparent" id="Result.name-to-Result" style="stroke:#181818;stroke-width:1;"/><polygon fill="#181818" points="262.91,116.85,270.1103,116.4563,272.5163,109.6584,265.316,110.0521,262.91,116.85" style="stroke:#181818;stroke-width:1;"/></g><!--link Result to Servey.result--><g id="link_Result_Servey.result"><path d="M240.74,159.04 C240.74,176.65 240.74,200.62 240.74,218.22 " fill="transparent" id="Result-Servey.result" style="stroke:#181818;stroke-width:1;"/></g><!--SRC=[VPB1ReCm38RlVef8t2OnmTGozIscLJjNb1W9YG9AO5FVVk0GSDo8M_BP-N_RCNPZCpxL5vf7OstJToh9J_NdwG8e8- -DZi2kV604QxILQOPnFaUYfc_nDcntWC15fUaRomRXTX1chWTPmbraAb2-ukyvKILPTIxkcZCs2RfE5irjKGreP0J4QMAmwf3vSePGIN3Ps1xP9aBegCifTJc-c9_PIoLtdLN5cJFM7Ltv3nDeIpk-mA6qzgyt6c3LeAAMCsmg0daTWRtIZkLevaw8-mAka_d5fqhmeZ-oFAIicoiI8256NHflQ4MH3rmb3Dgf7G4s2whLtI2q2IAxLGJBFmxbd2KFqF-b9fLzRSlcNYHPLjT57bA-mGx4jjL5rdtrxzookG6yler4zmrrM3Iqh2KT_m40]--></g></svg>