<svg xmlns="http://www.w3.org/2000/svg" xmlns:xlink="http://www.w3.org/1999/xlink" contentStyleType="text/css" data-diagram-type="ACTIVITY" height="644px" preserveAspectRatio="none" style="width:854px;height:644px;background:#FFFFFF;" version="1.1" viewBox="0 0 854 644" width="854px" zoomAndPan="magnify"><defs/><g><rect fill="transparent" height="20.9531" style="stroke:transparent;stroke-width:1;" width="821.4858" x="15" y="12.7451"/><ellipse cx="161.749" cy="48.6982" fill="#222222" rx="10" ry="10" style="stroke:#222222;stroke-width:1;"/><rect fill="#F1F1F1" height="33.9688" rx="12.5" ry="12.5" style="stroke:#181818;stroke-width:0.5;" width="139.0566" x="92.2207" y="78.6982"/><text fill="#000000" font-family="sans-serif" font-size="12" lengthAdjust="spacing" textLength="119.0566" x="102.2207" y="99.8369">&#1042;&#1093;&#1086;&#1076;&#1080;&#1090;&#1100; &#1074; &#1089;&#1080;&#1089;&#1090;&#1077;&#1084;&#1091;</text><rect fill="#F1F1F1" height="47.9375" rx="12.5" ry="12.5" style="stroke:#181818;stroke-width:0.5;" width="176.9609" x="73.2686" y="132.667"/><text fill="#000000" font-family="sans-serif" font-size="12" lengthAdjust="spacing" textLength="86.8066" x="83.2686" y="153.8057">&#1054;&#1073;&#1080;&#1088;&#1072;&#1108; &#1086;&#1087;&#1094;&#1110;&#1102;</text><text fill="#000000" font-family="sans-serif" font-size="12" lengthAdjust="spacing" textLength="156.9609" x="83.2686" y="167.7744">"&#1057;&#1090;&#1074;&#1086;&#1088;&#1077;&#1085;&#1085;&#1103; &#1086;&#1087;&#1080;&#1090;&#1091;&#1074;&#1072;&#1085;&#1085;&#1103;"</text><rect fill="#F1F1F1" height="33.9688" rx="12.5" ry="12.5" style="stroke:#181818;stroke-width:0.5;" width="250.1211" x="36.6885" y="257.7217"/><text fill="#000000" font-family="sans-serif" font-size="12" lengthAdjust="spacing" textLength="230.1211" x="46.6885" y="278.8604">&#1047;&#1072;&#1087;&#1086;&#1074;&#1085;&#1102;&#1108; &#1079;&#1072;&#1075;&#1086;&#1083;&#1086;&#1074;&#1086;&#1082;, &#1082;&#1086;&#1088;&#1086;&#1090;&#1082;&#1080;&#1081; &#1086;&#1087;&#1080;&#1089;</text><rect fill="#F1F1F1" height="33.9688" rx="12.5" ry="12.5" style="stroke:#181818;stroke-width:0.5;" width="281.498" x="21" y="311.6904"/><text fill="#000000" font-family="sans-serif" font-size="12" lengthAdjust="spacing" textLength="261.498" x="31" y="332.8291">&#1044;&#1086;&#1076;&#1072;&#1108; &#1087;&#1080;&#1090;&#1072;&#1085;&#1085;&#1103;, &#1097;&#1086; &#1085;&#1072;&#1083;&#1077;&#1078;&#1072;&#1090;&#1100; &#1086;&#1087;&#1080;&#1090;&#1091;&#1074;&#1072;&#1085;&#1102;</text><rect fill="#F1F1F1" height="47.9375" rx="12.5" ry="12.5" style="stroke:#181818;stroke-width:0.5;" width="127.3965" x="98.0508" y="365.6592"/><text fill="#000000" font-family="sans-serif" font-size="12" lengthAdjust="spacing" textLength="107.3965" x="108.0508" y="386.7979">&#1053;&#1072;&#1090;&#1080;&#1089;&#1082;&#1072;&#1108; &#1082;&#1085;&#1086;&#1087;&#1082;&#1091;</text><text fill="#000000" font-family="sans-serif" font-size="12" lengthAdjust="spacing" textLength="69.6094" x="108.0508" y="400.7666">"&#1047;&#1073;&#1077;&#1088;&#1077;&#1075;&#1090;&#1080;"</text><ellipse cx="161.749" cy="621.0811" fill="transparent" rx="11" ry="11" style="stroke:#222222;stroke-width:1;"/><ellipse cx="161.749" cy="621.0811" fill="#222222" rx="6" ry="6" style="stroke:#222222;stroke-width:1;"/><line style="stroke:#000000;stroke-width:1.5;" x1="15" x2="15" y1="12.7451" y2="632.0811"/><path d="M561.6572,197.4561 L561.6572,213.5889 L541.6572,217.5889 L561.6572,221.5889 L561.6572,237.7217 A0,0 0 0 0 561.6572,237.7217 L725.4351,237.7217 A0,0 0 0 0 725.4351,237.7217 L725.4351,207.4561 L715.4351,197.4561 L561.6572,197.4561 A0,0 0 0 0 561.6572,197.4561 " fill="#FFAAAA" style="stroke:#181818;stroke-width:0.5;"/><path d="M715.4351,197.4561 L715.4351,207.4561 L725.4351,207.4561 L715.4351,197.4561 " fill="#FFAAAA" style="stroke:#181818;stroke-width:0.5;"/><text fill="#000000" font-family="sans-serif" font-size="13" font-weight="bold" lengthAdjust="spacing" textLength="47.5313" x="572.1831" y="214.5229">Raises</text><text fill="#000000" font-family="sans-serif" font-size="13" font-weight="bold" lengthAdjust="spacing" textLength="138.252" x="572.1831" y="229.6558">AccessDeniedError</text><rect fill="#F1F1F1" height="33.9688" rx="12.5" ry="12.5" style="stroke:#181818;stroke-width:0.5;" width="207.6699" x="333.9873" y="200.6045"/><text fill="#000000" font-family="sans-serif" font-size="12" lengthAdjust="spacing" textLength="187.6699" x="343.9873" y="221.7432">&#1055;&#1077;&#1088;&#1077;&#1074;&#1110;&#1088;&#1103;&#1108; &#1087;&#1088;&#1072;&#1074;&#1072; &#1082;&#1086;&#1088;&#1080;&#1089;&#1090;&#1091;&#1074;&#1072;&#1095;&#1072;</text><path d="M558.959,423.5967 L558.959,447.2959 L538.959,451.2959 L558.959,455.2959 L558.959,478.9951 A0,0 0 0 0 558.959,478.9951 L829.625,478.9951 A0,0 0 0 0 829.625,478.9951 L829.625,433.5967 L819.625,423.5967 L558.959,423.5967 A0,0 0 0 0 558.959,423.5967 " fill="#FFAAAA" style="stroke:#181818;stroke-width:0.5;"/><path d="M819.625,423.5967 L819.625,433.5967 L829.625,433.5967 L819.625,423.5967 " fill="#FFAAAA" style="stroke:#181818;stroke-width:0.5;"/><text fill="#000000" font-family="sans-serif" font-size="13" font-weight="bold" lengthAdjust="spacing" textLength="47.5313" x="569.4849" y="440.6636">Raises</text><text fill="#000000" font-family="sans-serif" font-size="13" font-weight="bold" lengthAdjust="spacing" textLength="173.5259" x="569.4849" y="455.7964">ForbiddenSymbolsError</text><text fill="#000000" font-family="sans-serif" font-size="13" font-weight="bold" lengthAdjust="spacing" textLength="245.1401" x="569.4849" y="470.9292">NotAllMandatoryFieldsFilledError</text><rect fill="#F1F1F1" height="33.9688" rx="12.5" ry="12.5" style="stroke:#181818;stroke-width:0.5;" width="202.2734" x="336.6855" y="434.3115"/><text fill="#000000" font-family="sans-serif" font-size="12" lengthAdjust="spacing" textLength="182.2734" x="346.6855" y="455.4502">&#1055;&#1077;&#1088;&#1077;&#1074;&#1110;&#1088;&#1103;&#1108; &#1076;&#1072;&#1085;&#1110; &#1085;&#1072; &#1074;&#1072;&#1083;&#1110;&#1076;&#1085;&#1110;&#1089;&#1090;&#1100;</text><path d="M583.1465,495.8467 L583.1465,511.9795 L563.1465,515.9795 L583.1465,519.9795 L583.1465,536.1123 A0,0 0 0 0 583.1465,536.1123 L796.2202,536.1123 A0,0 0 0 0 796.2202,536.1123 L796.2202,505.8467 L786.2202,495.8467 L583.1465,495.8467 A0,0 0 0 0 583.1465,495.8467 " fill="#FFAAAA" style="stroke:#181818;stroke-width:0.5;"/><path d="M786.2202,495.8467 L786.2202,505.8467 L796.2202,505.8467 L786.2202,495.8467 " fill="#FFAAAA" style="stroke:#181818;stroke-width:0.5;"/><text fill="#000000" font-family="sans-serif" font-size="13" font-weight="bold" lengthAdjust="spacing" textLength="47.5313" x="593.6724" y="512.9136">Raises</text><text fill="#000000" font-family="sans-serif" font-size="13" font-weight="bold" lengthAdjust="spacing" textLength="187.5479" x="593.6724" y="528.0464">SurveyAlreadyExistsError</text><rect fill="#F1F1F1" height="33.9688" rx="12.5" ry="12.5" style="stroke:#181818;stroke-width:0.5;" width="250.6484" x="312.498" y="498.9951"/><text fill="#000000" font-family="sans-serif" font-size="12" lengthAdjust="spacing" textLength="230.6484" x="322.498" y="520.1338">&#1055;&#1077;&#1088;&#1077;&#1074;&#1110;&#1088;&#1103;&#1108;, &#1095;&#1080; &#1091;&#1085;&#1110;&#1082;&#1072;&#1083;&#1100;&#1085;&#1077; &#1086;&#1087;&#1080;&#1090;&#1091;&#1074;&#1072;&#1085;&#1085;&#1103;</text><rect fill="#F1F1F1" height="33.9688" rx="12.5" ry="12.5" style="stroke:#181818;stroke-width:0.5;" width="185.7734" x="344.9355" y="556.1123"/><text fill="#000000" font-family="sans-serif" font-size="12" lengthAdjust="spacing" textLength="165.7734" x="354.9355" y="577.251">&#1057;&#1090;&#1074;&#1086;&#1088;&#1102;&#1108; &#1085;&#1086;&#1074;&#1077; &#1086;&#1087;&#1080;&#1090;&#1091;&#1074;&#1072;&#1085;&#1085;&#1103;</text><line style="stroke:#000000;stroke-width:1.5;" x1="306.498" x2="306.498" y1="12.7451" y2="632.0811"/><line style="stroke:#000000;stroke-width:1.5;" x1="834.625" x2="834.625" y1="12.7451" y2="632.0811"/><line style="stroke:#181818;stroke-width:1;" x1="161.749" x2="161.749" y1="58.6982" y2="78.6982"/><polygon fill="#181818" points="157.749,68.6982,161.749,78.6982,165.749,68.6982,161.749,72.6982" style="stroke:#181818;stroke-width:1;"/><line style="stroke:#181818;stroke-width:1;" x1="161.749" x2="161.749" y1="112.667" y2="132.667"/><polygon fill="#181818" points="157.749,122.667,161.749,132.667,165.749,122.667,161.749,126.667" style="stroke:#181818;stroke-width:1;"/><line style="stroke:#181818;stroke-width:1;" x1="161.749" x2="161.749" y1="291.6904" y2="311.6904"/><polygon fill="#181818" points="157.749,301.6904,161.749,311.6904,165.749,301.6904,161.749,305.6904" style="stroke:#181818;stroke-width:1;"/><line style="stroke:#181818;stroke-width:1;" x1="161.749" x2="161.749" y1="345.6592" y2="365.6592"/><polygon fill="#181818" points="157.749,355.6592,161.749,365.6592,165.749,355.6592,161.749,359.6592" style="stroke:#181818;stroke-width:1;"/><line style="stroke:#181818;stroke-width:1;" x1="437.8223" x2="437.8223" y1="468.2803" y2="498.9951"/><polygon fill="#181818" points="433.8223,488.9951,437.8223,498.9951,441.8223,488.9951,437.8223,492.9951" style="stroke:#181818;stroke-width:1;"/><line style="stroke:#181818;stroke-width:1;" x1="437.8223" x2="437.8223" y1="532.9639" y2="556.1123"/><polygon fill="#181818" points="433.8223,546.1123,437.8223,556.1123,441.8223,546.1123,437.8223,550.1123" style="stroke:#181818;stroke-width:1;"/><line style="stroke:#181818;stroke-width:1;" x1="161.749" x2="161.749" y1="180.6045" y2="185.6045"/><line style="stroke:#181818;stroke-width:1;" x1="161.749" x2="437.8223" y1="185.6045" y2="185.6045"/><line style="stroke:#181818;stroke-width:1;" x1="437.8223" x2="437.8223" y1="185.6045" y2="200.6045"/><polygon fill="#181818" points="433.8223,190.6045,437.8223,200.6045,441.8223,190.6045,437.8223,194.6045" style="stroke:#181818;stroke-width:1;"/><line style="stroke:#181818;stroke-width:1;" x1="437.8223" x2="437.8223" y1="234.5732" y2="242.7217"/><line style="stroke:#181818;stroke-width:1;" x1="437.8223" x2="161.749" y1="242.7217" y2="242.7217"/><line style="stroke:#181818;stroke-width:1;" x1="161.749" x2="161.749" y1="242.7217" y2="257.7217"/><polygon fill="#181818" points="157.749,247.7217,161.749,257.7217,165.749,247.7217,161.749,251.7217" style="stroke:#181818;stroke-width:1;"/><line style="stroke:#181818;stroke-width:1;" x1="161.749" x2="161.749" y1="413.5967" y2="418.5967"/><line style="stroke:#181818;stroke-width:1;" x1="161.749" x2="437.8223" y1="418.5967" y2="418.5967"/><line style="stroke:#181818;stroke-width:1;" x1="437.8223" x2="437.8223" y1="418.5967" y2="434.3115"/><polygon fill="#181818" points="433.8223,424.3115,437.8223,434.3115,441.8223,424.3115,437.8223,428.3115" style="stroke:#181818;stroke-width:1;"/><line style="stroke:#181818;stroke-width:1;" x1="437.8223" x2="437.8223" y1="590.0811" y2="595.0811"/><line style="stroke:#181818;stroke-width:1;" x1="437.8223" x2="161.749" y1="595.0811" y2="595.0811"/><line style="stroke:#181818;stroke-width:1;" x1="161.749" x2="161.749" y1="595.0811" y2="610.0811"/><polygon fill="#181818" points="157.749,600.0811,161.749,610.0811,165.749,600.0811,161.749,604.0811" style="stroke:#181818;stroke-width:1;"/><text fill="#000000" font-family="sans-serif" font-size="18" lengthAdjust="spacing" textLength="135.8701" x="92.814" y="29.4531">&#1040;&#1076;&#1084;&#1110;&#1085;&#1110;&#1089;&#1090;&#1088;&#1072;&#1090;&#1086;&#1088;</text><text fill="#000000" font-family="sans-serif" font-size="18" lengthAdjust="spacing" textLength="80.332" x="530.3955" y="29.4531">&#1057;&#1080;&#1089;&#1090;&#1077;&#1084;&#1072;</text><!--SRC=[bLFBJi905Dtx5HFT-WLWJ4YKdIvqwwROKPlKraohaOG5IDIO43J6u4gDVr0H5AkKNxZpHvwv0-83NxDeElTnphtdtgdG6NNeHRUehrkwfWzqbH9zG9ckLgQ4EL7ig3Xl__7DqRa-f0n9FGGt1BM5hk4VgTG5K3tFGTTq1wF1kX287kWZm3VNWccwHM3Ru2Ey3zPJzZDQ7Ox46gU7ZCnPeTin0oKLPhYXBcEq0LpLfuPdO0WDXg2K6JZ9mkfZIWnc4CPIA6zpAnOp6niEZYMQAysB5SUBP3I-5zRNPHGjoC2Jxg9IeO9B1YvZV2ZlHmrpT8cg1kYoZO2cAVGHXdiOdjcOKJexgZX3NaezUXgfKhDwNh3ah2PhDT9fLkWJoWGk2T2wz62OpLW-QQgR5kUAAmCiM1WjHQg9JNNTJESISxEwtfkuTsFuwn0wJDVYaWIJFqEPpfisZVzEeHYgakUwCbWjRvT2FnfDOkXU3kE2xoyvWUl4eIeNFUcxKT7p_GapczJ4n3OWwp7r1DH3sKOgDD50Hzs9osf5-gwdhrrPo-gksfFbWg-auvONzxqeVjVQXpNBZH-DtPy-xyrFnVo-bcBukiET_2i0]--></g></svg>