<svg xmlns="http://www.w3.org/2000/svg" xmlns:xlink="http://www.w3.org/1999/xlink" contentStyleType="text/css" data-diagram-type="ACTIVITY" height="883px" preserveAspectRatio="none" style="width:813px;height:883px;background:#FFFFFF;" version="1.1" viewBox="0 0 813 883" width="813px" zoomAndPan="magnify"><defs/><g><rect fill="transparent" height="20.9531" style="stroke:transparent;stroke-width:1;" width="780.5815" x="15" y="12.7451"/><ellipse cx="129.8887" cy="48.6982" fill="#222222" rx="10" ry="10" style="stroke:#222222;stroke-width:1;"/><rect fill="#F1F1F1" height="61.9063" rx="12.5" ry="12.5" style="stroke:#181818;stroke-width:0.5;" width="158.0234" x="50.877" y="78.6982"/><text fill="#000000" font-family="sans-serif" font-size="12" lengthAdjust="spacing" textLength="107.3965" x="60.877" y="99.8369">&#1053;&#1072;&#1090;&#1080;&#1089;&#1082;&#1072;&#1108; &#1082;&#1085;&#1086;&#1087;&#1082;&#1091;</text><text fill="#000000" font-family="sans-serif" font-size="12" lengthAdjust="spacing" textLength="138.0234" x="60.877" y="113.8057">"Sign up" &#1074; &#1075;&#1086;&#1083;&#1086;&#1074;&#1085;&#1086;&#1084;&#1091;</text><text fill="#000000" font-family="sans-serif" font-size="12" lengthAdjust="spacing" textLength="34.3828" x="60.877" y="127.7744">&#1084;&#1077;&#1085;&#1102;</text><rect fill="#F1F1F1" height="33.9688" rx="12.5" ry="12.5" style="stroke:#181818;stroke-width:0.5;" width="191.1113" x="34.333" y="214.5732"/><text fill="#000000" font-family="sans-serif" font-size="12" lengthAdjust="spacing" textLength="171.1113" x="44.333" y="235.7119">&#1047;&#1072;&#1087;&#1086;&#1074;&#1085;&#1102;&#1108; &#1086;&#1073;&#1086;&#1074;&#700;&#1103;&#1079;&#1082;&#1086;&#1074;&#1110; &#1087;&#1086;&#1083;&#1103;</text><rect fill="#F1F1F1" height="61.9063" rx="12.5" ry="12.5" style="stroke:#181818;stroke-width:0.5;" width="136.6836" x="61.5469" y="268.542"/><text fill="#000000" font-family="sans-serif" font-size="12" lengthAdjust="spacing" textLength="107.3965" x="71.5469" y="289.6807">&#1053;&#1072;&#1090;&#1080;&#1089;&#1082;&#1072;&#1108; &#1082;&#1085;&#1086;&#1087;&#1082;&#1091;</text><text fill="#000000" font-family="sans-serif" font-size="12" lengthAdjust="spacing" textLength="116.6836" x="71.5469" y="303.6494">"Sign up" &#1085;&#1072; &#1092;&#1086;&#1088;&#1084;&#1110;</text><text fill="#000000" font-family="sans-serif" font-size="12" lengthAdjust="spacing" textLength="64.9805" x="71.5469" y="317.6182">&#1088;&#1077;&#1108;&#1089;&#1090;&#1088;&#1072;&#1094;&#1110;&#1111;</text><rect fill="#F1F1F1" height="47.9375" rx="12.5" ry="12.5" style="stroke:#181818;stroke-width:0.5;" width="189.8223" x="34.9775" y="537.7529"/><text fill="#000000" font-family="sans-serif" font-size="12" lengthAdjust="spacing" textLength="169.8223" x="44.9775" y="558.8916">&#1042;&#1110;&#1076;&#1082;&#1088;&#1080;&#1074;&#1072;&#1108; &#1086;&#1090;&#1088;&#1080;&#1084;&#1072;&#1085;&#1080;&#1081; &#1083;&#1080;&#1089;&#1090;</text><text fill="#000000" font-family="sans-serif" font-size="12" lengthAdjust="spacing" textLength="137.7773" x="44.9775" y="572.8604">&#1085;&#1072; &#1077;&#1083;&#1077;&#1082;&#1090;&#1088;&#1086;&#1085;&#1085;&#1110;&#1081; &#1087;&#1086;&#1096;&#1090;&#1110;</text><rect fill="#F1F1F1" height="47.9375" rx="12.5" ry="12.5" style="stroke:#181818;stroke-width:0.5;" width="127.3965" x="66.1904" y="605.6904"/><text fill="#000000" font-family="sans-serif" font-size="12" lengthAdjust="spacing" textLength="107.3965" x="76.1904" y="626.8291">&#1053;&#1072;&#1090;&#1080;&#1089;&#1082;&#1072;&#1108; &#1082;&#1085;&#1086;&#1087;&#1082;&#1091;</text><text fill="#000000" font-family="sans-serif" font-size="12" lengthAdjust="spacing" textLength="90.5156" x="76.1904" y="640.7979">"Submit email"</text><rect fill="#F1F1F1" height="33.9688" rx="12.5" ry="12.5" style="stroke:#181818;stroke-width:0.5;" width="217.7773" x="21" y="795.5342"/><text fill="#000000" font-family="sans-serif" font-size="12" lengthAdjust="spacing" textLength="197.7773" x="31" y="816.6729">&#1054;&#1090;&#1088;&#1080;&#1084;&#1091;&#1108; &#1076;&#1086;&#1089;&#1090;&#1091;&#1087; &#1076;&#1086; &#1087;&#1083;&#1072;&#1090;&#1092;&#1086;&#1088;&#1084;&#1080;</text><ellipse cx="129.8887" cy="860.5029" fill="transparent" rx="11" ry="11" style="stroke:#222222;stroke-width:1;"/><ellipse cx="129.8887" cy="860.5029" fill="#222222" rx="6" ry="6" style="stroke:#222222;stroke-width:1;"/><line style="stroke:#000000;stroke-width:1.5;" x1="15" x2="15" y1="12.7451" y2="871.5029"/><rect fill="#F1F1F1" height="33.9688" rx="12.5" ry="12.5" style="stroke:#181818;stroke-width:0.5;" width="197.5215" x="298.1572" y="160.6045"/><text fill="#000000" font-family="sans-serif" font-size="12" lengthAdjust="spacing" textLength="177.5215" x="308.1572" y="181.7432">&#1042;&#1110;&#1076;&#1082;&#1088;&#1080;&#1074;&#1072;&#1108; &#1092;&#1086;&#1088;&#1084;&#1091; &#1088;&#1077;&#1108;&#1089;&#1090;&#1088;&#1072;&#1094;&#1110;&#1111;</text><path d="M518.0547,340.4482 L518.0547,364.1475 L498.0547,368.1475 L518.0547,372.1475 L518.0547,395.8467 A0,0 0 0 0 518.0547,395.8467 L788.7207,395.8467 A0,0 0 0 0 788.7207,395.8467 L788.7207,350.4482 L778.7207,340.4482 L518.0547,340.4482 A0,0 0 0 0 518.0547,340.4482 " fill="#FFAAAA" style="stroke:#181818;stroke-width:0.5;"/><path d="M778.7207,340.4482 L778.7207,350.4482 L788.7207,350.4482 L778.7207,340.4482 " fill="#FFAAAA" style="stroke:#181818;stroke-width:0.5;"/><text fill="#000000" font-family="sans-serif" font-size="13" font-weight="bold" lengthAdjust="spacing" textLength="47.5313" x="528.5806" y="357.5151">Raises</text><text fill="#000000" font-family="sans-serif" font-size="13" font-weight="bold" lengthAdjust="spacing" textLength="173.5259" x="528.5806" y="372.6479">ForbiddenSymbolsError</text><text fill="#000000" font-family="sans-serif" font-size="13" font-weight="bold" lengthAdjust="spacing" textLength="245.1401" x="528.5806" y="387.7808">NotAllMandatoryFieldsFilledError</text><rect fill="#F1F1F1" height="33.9688" rx="12.5" ry="12.5" style="stroke:#181818;stroke-width:0.5;" width="202.2734" x="295.7813" y="351.1631"/><text fill="#000000" font-family="sans-serif" font-size="12" lengthAdjust="spacing" textLength="182.2734" x="305.7813" y="372.3018">&#1055;&#1077;&#1088;&#1077;&#1074;&#1110;&#1088;&#1103;&#1108; &#1076;&#1072;&#1085;&#1110; &#1085;&#1072; &#1074;&#1072;&#1083;&#1110;&#1076;&#1085;&#1110;&#1089;&#1090;&#1100;</text><path d="M511.8408,419.6826 L511.8408,435.8154 L491.8408,439.8154 L511.8408,443.8154 L511.8408,459.9482 A0,0 0 0 0 511.8408,459.9482 L733.249,459.9482 A0,0 0 0 0 733.249,459.9482 L733.249,429.6826 L723.249,419.6826 L511.8408,419.6826 A0,0 0 0 0 511.8408,419.6826 " fill="#FFAAAA" style="stroke:#181818;stroke-width:0.5;"/><path d="M723.249,419.6826 L723.249,429.6826 L733.249,429.6826 L723.249,419.6826 " fill="#FFAAAA" style="stroke:#181818;stroke-width:0.5;"/><text fill="#000000" font-family="sans-serif" font-size="13" font-weight="bold" lengthAdjust="spacing" textLength="47.5313" x="522.3667" y="436.7495">Raises</text><text fill="#000000" font-family="sans-serif" font-size="13" font-weight="bold" lengthAdjust="spacing" textLength="195.8823" x="522.3667" y="451.8823">AccountAlreadyExistsError</text><rect fill="#F1F1F1" height="47.9375" rx="12.5" ry="12.5" style="stroke:#181818;stroke-width:0.5;" width="189.8457" x="301.9951" y="415.8467"/><text fill="#000000" font-family="sans-serif" font-size="12" lengthAdjust="spacing" textLength="169.8457" x="311.9951" y="436.9854">&#1055;&#1077;&#1088;&#1077;&#1074;&#1110;&#1088;&#1103;&#1108; &#1086;&#1073;&#1083;&#1110;&#1082;&#1086;&#1074;&#1080;&#1081; &#1079;&#1072;&#1087;&#1080;&#1089;</text><text fill="#000000" font-family="sans-serif" font-size="12" lengthAdjust="spacing" textLength="98.4785" x="311.9951" y="450.9541">&#1085;&#1072; &#1091;&#1085;&#1110;&#1082;&#1072;&#1083;&#1100;&#1085;&#1110;&#1089;&#1090;&#1100;</text><rect fill="#F1F1F1" height="33.9688" rx="12.5" ry="12.5" style="stroke:#181818;stroke-width:0.5;" width="296.2813" x="248.7773" y="483.7842"/><text fill="#000000" font-family="sans-serif" font-size="12" lengthAdjust="spacing" textLength="276.2813" x="258.7773" y="504.9229">&#1053;&#1072;&#1076;&#1089;&#1080;&#1083;&#1072;&#1108; email - &#1087;&#1110;&#1076;&#1090;&#1074;&#1077;&#1088;&#1076;&#1078;&#1077;&#1085;&#1085;&#1103; &#1088;&#1077;&#1108;&#1089;&#1090;&#1088;&#1072;&#1094;&#1110;&#1111;</text><rect fill="#F1F1F1" height="47.9375" rx="12.5" ry="12.5" style="stroke:#181818;stroke-width:0.5;" width="154.8477" x="319.4941" y="673.6279"/><text fill="#000000" font-family="sans-serif" font-size="12" lengthAdjust="spacing" textLength="121.3945" x="329.4941" y="694.7666">&#1054;&#1090;&#1088;&#1080;&#1084;&#1091;&#1108; &#1079;&#1072;&#1087;&#1080;&#1090; &#1087;&#1088;&#1086;</text><text fill="#000000" font-family="sans-serif" font-size="12" lengthAdjust="spacing" textLength="134.8477" x="329.4941" y="708.7354">&#1087;&#1110;&#1076;&#1090;&#1074;&#1077;&#1088;&#1076;&#1078;&#1077;&#1085;&#1085;&#1103; email</text><rect fill="#F1F1F1" height="33.9688" rx="12.5" ry="12.5" style="stroke:#181818;stroke-width:0.5;" width="287.2578" x="253.2891" y="741.5654"/><text fill="#000000" font-family="sans-serif" font-size="12" lengthAdjust="spacing" textLength="267.2578" x="263.2891" y="762.7041">&#1052;&#1072;&#1088;&#1082;&#1091;&#1108; &#1082;&#1086;&#1088;&#1080;&#1089;&#1090;&#1091;&#1074;&#1072;&#1095;&#1072;, &#1103;&#1082; &#1087;&#1110;&#1076;&#1090;&#1074;&#1077;&#1088;&#1076;&#1078;&#1077;&#1085;&#1085;&#1086;&#1075;&#1086;</text><line style="stroke:#000000;stroke-width:1.5;" x1="242.7773" x2="242.7773" y1="12.7451" y2="871.5029"/><line style="stroke:#000000;stroke-width:1.5;" x1="793.7207" x2="793.7207" y1="12.7451" y2="871.5029"/><line style="stroke:#181818;stroke-width:1;" x1="129.8887" x2="129.8887" y1="58.6982" y2="78.6982"/><polygon fill="#181818" points="125.8887,68.6982,129.8887,78.6982,133.8887,68.6982,129.8887,72.6982" style="stroke:#181818;stroke-width:1;"/><line style="stroke:#181818;stroke-width:1;" x1="129.8887" x2="129.8887" y1="248.542" y2="268.542"/><polygon fill="#181818" points="125.8887,258.542,129.8887,268.542,133.8887,258.542,129.8887,262.542" style="stroke:#181818;stroke-width:1;"/><line style="stroke:#181818;stroke-width:1;" x1="129.8887" x2="129.8887" y1="585.6904" y2="605.6904"/><polygon fill="#181818" points="125.8887,595.6904,129.8887,605.6904,133.8887,595.6904,129.8887,599.6904" style="stroke:#181818;stroke-width:1;"/><line style="stroke:#181818;stroke-width:1;" x1="129.8887" x2="129.8887" y1="829.5029" y2="849.5029"/><polygon fill="#181818" points="125.8887,839.5029,129.8887,849.5029,133.8887,839.5029,129.8887,843.5029" style="stroke:#181818;stroke-width:1;"/><line style="stroke:#181818;stroke-width:1;" x1="396.918" x2="396.918" y1="385.1318" y2="415.8467"/><polygon fill="#181818" points="392.918,405.8467,396.918,415.8467,400.918,405.8467,396.918,409.8467" style="stroke:#181818;stroke-width:1;"/><line style="stroke:#181818;stroke-width:1;" x1="396.918" x2="396.918" y1="463.7842" y2="483.7842"/><polygon fill="#181818" points="392.918,473.7842,396.918,483.7842,400.918,473.7842,396.918,477.7842" style="stroke:#181818;stroke-width:1;"/><line style="stroke:#181818;stroke-width:1;" x1="396.918" x2="396.918" y1="721.5654" y2="741.5654"/><polygon fill="#181818" points="392.918,731.5654,396.918,741.5654,400.918,731.5654,396.918,735.5654" style="stroke:#181818;stroke-width:1;"/><line style="stroke:#181818;stroke-width:1;" x1="129.8887" x2="129.8887" y1="140.6045" y2="145.6045"/><line style="stroke:#181818;stroke-width:1;" x1="129.8887" x2="396.918" y1="145.6045" y2="145.6045"/><line style="stroke:#181818;stroke-width:1;" x1="396.918" x2="396.918" y1="145.6045" y2="160.6045"/><polygon fill="#181818" points="392.918,150.6045,396.918,160.6045,400.918,150.6045,396.918,154.6045" style="stroke:#181818;stroke-width:1;"/><line style="stroke:#181818;stroke-width:1;" x1="396.918" x2="396.918" y1="194.5732" y2="199.5732"/><line style="stroke:#181818;stroke-width:1;" x1="396.918" x2="129.8887" y1="199.5732" y2="199.5732"/><line style="stroke:#181818;stroke-width:1;" x1="129.8887" x2="129.8887" y1="199.5732" y2="214.5732"/><polygon fill="#181818" points="125.8887,204.5732,129.8887,214.5732,133.8887,204.5732,129.8887,208.5732" style="stroke:#181818;stroke-width:1;"/><line style="stroke:#181818;stroke-width:1;" x1="129.8887" x2="129.8887" y1="330.4482" y2="335.4482"/><line style="stroke:#181818;stroke-width:1;" x1="129.8887" x2="396.918" y1="335.4482" y2="335.4482"/><line style="stroke:#181818;stroke-width:1;" x1="396.918" x2="396.918" y1="335.4482" y2="351.1631"/><polygon fill="#181818" points="392.918,341.1631,396.918,351.1631,400.918,341.1631,396.918,345.1631" style="stroke:#181818;stroke-width:1;"/><line style="stroke:#181818;stroke-width:1;" x1="396.918" x2="396.918" y1="517.7529" y2="522.7529"/><line style="stroke:#181818;stroke-width:1;" x1="396.918" x2="129.8887" y1="522.7529" y2="522.7529"/><line style="stroke:#181818;stroke-width:1;" x1="129.8887" x2="129.8887" y1="522.7529" y2="537.7529"/><polygon fill="#181818" points="125.8887,527.7529,129.8887,537.7529,133.8887,527.7529,129.8887,531.7529" style="stroke:#181818;stroke-width:1;"/><line style="stroke:#181818;stroke-width:1;" x1="129.8887" x2="129.8887" y1="653.6279" y2="658.6279"/><line style="stroke:#181818;stroke-width:1;" x1="129.8887" x2="396.918" y1="658.6279" y2="658.6279"/><line style="stroke:#181818;stroke-width:1;" x1="396.918" x2="396.918" y1="658.6279" y2="673.6279"/><polygon fill="#181818" points="392.918,663.6279,396.918,673.6279,400.918,663.6279,396.918,667.6279" style="stroke:#181818;stroke-width:1;"/><line style="stroke:#181818;stroke-width:1;" x1="396.918" x2="396.918" y1="775.5342" y2="780.5342"/><line style="stroke:#181818;stroke-width:1;" x1="396.918" x2="129.8887" y1="780.5342" y2="780.5342"/><line style="stroke:#181818;stroke-width:1;" x1="129.8887" x2="129.8887" y1="780.5342" y2="795.5342"/><polygon fill="#181818" points="125.8887,785.5342,129.8887,795.5342,133.8887,785.5342,129.8887,789.5342" style="stroke:#181818;stroke-width:1;"/><text fill="#000000" font-family="sans-serif" font-size="18" lengthAdjust="spacing" textLength="110.2236" x="73.7769" y="29.4531">&#1050;&#1086;&#1088;&#1080;&#1089;&#1090;&#1091;&#1074;&#1072;&#1095;</text><text fill="#000000" font-family="sans-serif" font-size="18" lengthAdjust="spacing" textLength="80.332" x="478.083" y="29.4531">&#1057;&#1080;&#1089;&#1090;&#1077;&#1084;&#1072;</text><!--SRC=[dPJDQjj04CVlUOh5lROl49T23l6jFJJNNEH8IGMo52GPQl31bKkIGuYX60LAF-WRg8xIkhRit7kQUQF-PpR2a4Jz4aZQrSxE_EO_inhIUrhpYERyXZCUqumAFXrk6RcIr8dJjXtZkKqViPY9AIqmcXgyLhIc6rhmU3zixVb7eUaVjmpD35rXOObxfYQL6515rxJYY_OMl0tfYmsARnKLGmtmZdCguGqyIZ8r_5RniD_WTSrJvHnXxOHplXGwTTQGnJPTKW50vU0BOLxJLvd-h7X2tv41nfmRjLdofFrlYQwes23c-s4JOwtXWrb_nXxi4muUyKJYbQ1U2PO4a7J09jBWcpe_5wTXb7eczezUfURHuQ63oqPwsdrcNZf-uYMRUIUAkxxhUk7UeDUDWcGtZgDui_mYIdU2uBaJkauQnOEExmLkql63m7DhIozqDM8JikWgaAeewlV3G5xH7lcYzghKM18GJM5v_l_9x1mSHFqGnB7dk8FTrtwI9WzYeevKeefpjABKqUivVc2UeDgY9gemqpnA-YQT2Q29-NC56rljVlV2CjDf9VMqeYpjrbj947U9Uw5sQsN8nGhjo6VucFzTG_QxFJ-rwRMQZzUdceR7ugCkJoPw83gGcdLHtnRc0n164jc2t5E3YiS6XslHA3F8yNkmglvUqZl49UoipOrEH2UfR5QVGPfhzkRs_nKTjty1]--></g></svg>