<svg xmlns="http://www.w3.org/2000/svg" xmlns:xlink="http://www.w3.org/1999/xlink" contentStyleType="text/css" data-diagram-type="CLASS" height="996px" preserveAspectRatio="none" style="width:537px;height:996px;background:#FFFFFF;" version="1.1" viewBox="0 0 537 996" width="537px" zoomAndPan="magnify"><defs/><g><!--class Permission--><g id="elem_Permission"><rect codeLine="1" fill="#F1F1F1" height="96.8906" id="Permission" rx="2.5" ry="2.5" style="stroke:#181818;stroke-width:0.5;" width="153.1963" x="237.18" y="7"/><ellipse cx="272.4036" cy="23" fill="#ADD1B2" rx="11" ry="11" style="stroke:#181818;stroke-width:1;"/><path d="M276.513,29 L268.7943,29 L268.7943,16.6094 L276.513,16.6094 L276.513,18.7656 L271.2474,18.7656 L271.2474,21.4375 L276.013,21.4375 L276.013,23.5938 L271.2474,23.5938 L271.2474,26.8438 L276.513,26.8438 L276.513,29 Z " fill="#000000"/><text fill="#000000" font-family="sans-serif" font-size="14" lengthAdjust="spacing" textLength="76.2549" x="290.8978" y="27.8467">Permission</text><line style="stroke:#181818;stroke-width:0.5;" x1="238.18" x2="389.3763" y1="39" y2="39"/><ellipse cx="248.18" cy="52.6484" fill="transparent" rx="3" ry="3" style="stroke:#038048;stroke-width:1;"/><text fill="#000000" font-family="sans-serif" font-size="14" lengthAdjust="spacing" textLength="40.1953" x="257.18" y="55.9951">id: int</text><ellipse cx="248.18" cy="68.9453" fill="transparent" rx="3" ry="3" style="stroke:#038048;stroke-width:1;"/><text fill="#000000" font-family="sans-serif" font-size="14" lengthAdjust="spacing" textLength="89.0586" x="257.18" y="72.292">name: string</text><ellipse cx="248.18" cy="85.2422" fill="transparent" rx="3" ry="3" style="stroke:#038048;stroke-width:1;"/><text fill="#000000" font-family="sans-serif" font-size="14" lengthAdjust="spacing" textLength="127.1963" x="257.18" y="88.5889">description: string</text><line style="stroke:#181818;stroke-width:0.5;" x1="238.18" x2="389.3763" y1="95.8906" y2="95.8906"/></g><!--class Role--><g id="elem_Role"><rect codeLine="7" fill="#F1F1F1" height="96.8906" id="Role" rx="2.5" ry="2.5" style="stroke:#181818;stroke-width:0.5;" width="153.1963" x="237.18" y="180.89"/><ellipse cx="294.1302" cy="196.89" fill="#ADD1B2" rx="11" ry="11" style="stroke:#181818;stroke-width:1;"/><path d="M298.2396,202.89 L290.5208,202.89 L290.5208,190.4994 L298.2396,190.4994 L298.2396,192.6556 L292.9739,192.6556 L292.9739,195.3275 L297.7396,195.3275 L297.7396,197.4838 L292.9739,197.4838 L292.9739,200.7338 L298.2396,200.7338 L298.2396,202.89 Z " fill="#000000"/><text fill="#000000" font-family="sans-serif" font-size="14" lengthAdjust="spacing" textLength="30.7959" x="314.6302" y="201.7367">Role</text><line style="stroke:#181818;stroke-width:0.5;" x1="238.18" x2="389.3763" y1="212.89" y2="212.89"/><ellipse cx="248.18" cy="226.5384" fill="transparent" rx="3" ry="3" style="stroke:#038048;stroke-width:1;"/><text fill="#000000" font-family="sans-serif" font-size="14" lengthAdjust="spacing" textLength="40.1953" x="257.18" y="229.8851">id: int</text><ellipse cx="248.18" cy="242.8353" fill="transparent" rx="3" ry="3" style="stroke:#038048;stroke-width:1;"/><text fill="#000000" font-family="sans-serif" font-size="14" lengthAdjust="spacing" textLength="89.0586" x="257.18" y="246.182">name: string</text><ellipse cx="248.18" cy="259.1322" fill="transparent" rx="3" ry="3" style="stroke:#038048;stroke-width:1;"/><text fill="#000000" font-family="sans-serif" font-size="14" lengthAdjust="spacing" textLength="127.1963" x="257.18" y="262.4789">description: string</text><line style="stroke:#181818;stroke-width:0.5;" x1="238.18" x2="389.3763" y1="269.7806" y2="269.7806"/></g><!--class User--><g id="elem_User"><rect codeLine="13" fill="#F1F1F1" height="113.1875" id="User" rx="2.5" ry="2.5" style="stroke:#181818;stroke-width:0.5;" width="142.0674" x="242.75" y="354.78"/><ellipse cx="293.5786" cy="370.78" fill="#ADD1B2" rx="11" ry="11" style="stroke:#181818;stroke-width:1;"/><path d="M297.688,376.78 L289.9692,376.78 L289.9692,364.3894 L297.688,364.3894 L297.688,366.5456 L292.4224,366.5456 L292.4224,369.2175 L297.188,369.2175 L297.188,371.3738 L292.4224,371.3738 L292.4224,374.6238 L297.688,374.6238 L297.688,376.78 Z " fill="#000000"/><text fill="#000000" font-family="sans-serif" font-size="14" lengthAdjust="spacing" textLength="31.9102" x="314.0786" y="375.6267">User</text><line style="stroke:#181818;stroke-width:0.5;" x1="243.75" x2="383.8174" y1="386.78" y2="386.78"/><ellipse cx="253.75" cy="400.4284" fill="transparent" rx="3" ry="3" style="stroke:#038048;stroke-width:1;"/><text fill="#000000" font-family="sans-serif" font-size="14" lengthAdjust="spacing" textLength="40.1953" x="262.75" y="403.7751">id: int</text><ellipse cx="253.75" cy="416.7253" fill="transparent" rx="3" ry="3" style="stroke:#038048;stroke-width:1;"/><text fill="#000000" font-family="sans-serif" font-size="14" lengthAdjust="spacing" textLength="89.0586" x="262.75" y="420.072">name: string</text><ellipse cx="253.75" cy="433.0222" fill="transparent" rx="3" ry="3" style="stroke:#038048;stroke-width:1;"/><text fill="#000000" font-family="sans-serif" font-size="14" lengthAdjust="spacing" textLength="114.3105" x="262.75" y="436.3689">lastname: string</text><ellipse cx="253.75" cy="449.3191" fill="transparent" rx="3" ry="3" style="stroke:#038048;stroke-width:1;"/><text fill="#000000" font-family="sans-serif" font-size="14" lengthAdjust="spacing" textLength="116.0674" x="262.75" y="452.6657">password: string</text><line style="stroke:#181818;stroke-width:0.5;" x1="243.75" x2="383.8174" y1="459.9675" y2="459.9675"/></g><!--class Survey--><g id="elem_Survey"><rect codeLine="20" fill="#F1F1F1" height="96.8906" id="Survey" rx="2.5" ry="2.5" style="stroke:#181818;stroke-width:0.5;" width="153.1963" x="237.18" y="544.97"/><ellipse cx="285.1785" cy="560.97" fill="#ADD1B2" rx="11" ry="11" style="stroke:#181818;stroke-width:1;"/><path d="M289.2879,566.97 L281.5692,566.97 L281.5692,554.5794 L289.2879,554.5794 L289.2879,556.7356 L284.0223,556.7356 L284.0223,559.4075 L288.7879,559.4075 L288.7879,561.5637 L284.0223,561.5637 L284.0223,564.8137 L289.2879,564.8137 L289.2879,566.97 Z " fill="#000000"/><text fill="#000000" font-family="sans-serif" font-size="14" lengthAdjust="spacing" textLength="48.6992" x="305.6785" y="565.8167">Survey</text><line style="stroke:#181818;stroke-width:0.5;" x1="238.18" x2="389.3763" y1="576.97" y2="576.97"/><ellipse cx="248.18" cy="590.6184" fill="transparent" rx="3" ry="3" style="stroke:#038048;stroke-width:1;"/><text fill="#000000" font-family="sans-serif" font-size="14" lengthAdjust="spacing" textLength="40.1953" x="257.18" y="593.9651">id: int</text><ellipse cx="248.18" cy="606.9153" fill="transparent" rx="3" ry="3" style="stroke:#038048;stroke-width:1;"/><text fill="#000000" font-family="sans-serif" font-size="14" lengthAdjust="spacing" textLength="89.0586" x="257.18" y="610.262">name: string</text><ellipse cx="248.18" cy="623.2122" fill="transparent" rx="3" ry="3" style="stroke:#038048;stroke-width:1;"/><text fill="#000000" font-family="sans-serif" font-size="14" lengthAdjust="spacing" textLength="127.1963" x="257.18" y="626.5589">description: string</text><line style="stroke:#181818;stroke-width:0.5;" x1="238.18" x2="389.3763" y1="633.8606" y2="633.8606"/></g><!--class Question--><g id="elem_Question"><rect codeLine="26" fill="#F1F1F1" height="113.1875" id="Question" rx="2.5" ry="2.5" style="stroke:#181818;stroke-width:0.5;" width="335.5654" x="7" y="718.86"/><ellipse cx="139.2241" cy="734.86" fill="#ADD1B2" rx="11" ry="11" style="stroke:#181818;stroke-width:1;"/><path d="M143.3335,740.86 L135.6147,740.86 L135.6147,728.4694 L143.3335,728.4694 L143.3335,730.6256 L138.0679,730.6256 L138.0679,733.2975 L142.8335,733.2975 L142.8335,735.4538 L138.0679,735.4538 L138.0679,738.7038 L143.3335,738.7038 L143.3335,740.86 Z " fill="#000000"/><text fill="#000000" font-family="sans-serif" font-size="14" lengthAdjust="spacing" textLength="62.6172" x="159.7241" y="739.7067">Question</text><line style="stroke:#181818;stroke-width:0.5;" x1="8" x2="341.5654" y1="750.86" y2="750.86"/><ellipse cx="18" cy="764.5084" fill="transparent" rx="3" ry="3" style="stroke:#038048;stroke-width:1;"/><text fill="#000000" font-family="sans-serif" font-size="14" lengthAdjust="spacing" textLength="40.1953" x="27" y="767.8551">id: int</text><ellipse cx="18" cy="780.8053" fill="transparent" rx="3" ry="3" style="stroke:#038048;stroke-width:1;"/><text fill="#000000" font-family="sans-serif" font-size="14" lengthAdjust="spacing" textLength="77.2324" x="27" y="784.152">text: string</text><ellipse cx="18" cy="797.1022" fill="transparent" rx="3" ry="3" style="stroke:#038048;stroke-width:1;"/><text fill="#000000" font-family="sans-serif" font-size="14" lengthAdjust="spacing" textLength="309.5654" x="27" y="800.4489">type: enum {open, closed, multiply_choice}</text><ellipse cx="18" cy="813.3991" fill="transparent" rx="3" ry="3" style="stroke:#038048;stroke-width:1;"/><text fill="#000000" font-family="sans-serif" font-size="14" lengthAdjust="spacing" textLength="122.8623" x="27" y="816.7457">isNecessary: bool</text><line style="stroke:#181818;stroke-width:0.5;" x1="8" x2="341.5654" y1="824.0475" y2="824.0475"/></g><!--class Result--><g id="elem_Result"><rect codeLine="33" fill="#F1F1F1" height="96.8906" id="Result" rx="2.5" ry="2.5" style="stroke:#181818;stroke-width:0.5;" width="153.1963" x="377.18" y="727.01"/><ellipse cx="427.5848" cy="743.01" fill="#ADD1B2" rx="11" ry="11" style="stroke:#181818;stroke-width:1;"/><path d="M431.6942,749.01 L423.9754,749.01 L423.9754,736.6194 L431.6942,736.6194 L431.6942,738.7756 L426.4285,738.7756 L426.4285,741.4475 L431.1942,741.4475 L431.1942,743.6038 L426.4285,743.6038 L426.4285,746.8538 L431.6942,746.8538 L431.6942,749.01 Z " fill="#000000"/><text fill="#000000" font-family="sans-serif" font-size="14" lengthAdjust="spacing" textLength="43.8867" x="448.0848" y="747.8567">Result</text><line style="stroke:#181818;stroke-width:0.5;" x1="378.18" x2="529.3763" y1="759.01" y2="759.01"/><ellipse cx="388.18" cy="772.6584" fill="transparent" rx="3" ry="3" style="stroke:#038048;stroke-width:1;"/><text fill="#000000" font-family="sans-serif" font-size="14" lengthAdjust="spacing" textLength="40.1953" x="397.18" y="776.0051">id: int</text><ellipse cx="388.18" cy="788.9553" fill="transparent" rx="3" ry="3" style="stroke:#038048;stroke-width:1;"/><text fill="#000000" font-family="sans-serif" font-size="14" lengthAdjust="spacing" textLength="89.0586" x="397.18" y="792.302">name: string</text><ellipse cx="388.18" cy="805.2522" fill="transparent" rx="3" ry="3" style="stroke:#038048;stroke-width:1;"/><text fill="#000000" font-family="sans-serif" font-size="14" lengthAdjust="spacing" textLength="127.1963" x="397.18" y="808.5989">description: string</text><line style="stroke:#181818;stroke-width:0.5;" x1="378.18" x2="529.3763" y1="815.9006" y2="815.9006"/></g><!--class AnswerOption--><g id="elem_AnswerOption"><rect codeLine="39" fill="#F1F1F1" height="80.5938" id="AnswerOption" rx="2.5" ry="2.5" style="stroke:#181818;stroke-width:0.5;" width="130.2871" x="59.64" y="909.05"/><ellipse cx="74.64" cy="925.05" fill="#ADD1B2" rx="11" ry="11" style="stroke:#181818;stroke-width:1;"/><path d="M78.7494,931.05 L71.0306,931.05 L71.0306,918.6594 L78.7494,918.6594 L78.7494,920.8156 L73.4838,920.8156 L73.4838,923.4875 L78.2494,923.4875 L78.2494,925.6438 L73.4838,925.6438 L73.4838,928.8938 L78.7494,928.8938 L78.7494,931.05 Z " fill="#000000"/><text fill="#000000" font-family="sans-serif" font-size="14" lengthAdjust="spacing" textLength="98.2871" x="88.64" y="929.8967">AnswerOption</text><line style="stroke:#181818;stroke-width:0.5;" x1="60.64" x2="188.9271" y1="941.05" y2="941.05"/><text fill="#000000" font-family="sans-serif" font-size="14" lengthAdjust="spacing" textLength="60.8262" x="65.64" y="958.0451">&#160; +id: int</text><text fill="#000000" font-family="sans-serif" font-size="14" lengthAdjust="spacing" textLength="97.8633" x="65.64" y="974.342">&#160; +text: string</text><line style="stroke:#181818;stroke-width:0.5;" x1="60.64" x2="188.9271" y1="981.6438" y2="981.6438"/></g><!--class UserAnswer--><g id="elem_UserAnswer"><rect codeLine="44" fill="#F1F1F1" height="80.5938" id="UserAnswer" rx="2.5" ry="2.5" style="stroke:#181818;stroke-width:0.5;" width="132.5518" x="250.51" y="909.05"/><ellipse cx="273.1952" cy="925.05" fill="#ADD1B2" rx="11" ry="11" style="stroke:#181818;stroke-width:1;"/><path d="M277.3045,931.05 L269.5858,931.05 L269.5858,918.6594 L277.3045,918.6594 L277.3045,920.8156 L272.0389,920.8156 L272.0389,923.4875 L276.8045,923.4875 L276.8045,925.6438 L272.0389,925.6438 L272.0389,928.8938 L277.3045,928.8938 L277.3045,931.05 Z " fill="#000000"/><text fill="#000000" font-family="sans-serif" font-size="14" lengthAdjust="spacing" textLength="83.4736" x="288.903" y="929.8967">UserAnswer</text><line style="stroke:#181818;stroke-width:0.5;" x1="251.51" x2="382.0618" y1="941.05" y2="941.05"/><text fill="#000000" font-family="sans-serif" font-size="14" lengthAdjust="spacing" textLength="60.8262" x="256.51" y="958.0451">&#160; +id: int</text><text fill="#000000" font-family="sans-serif" font-size="14" lengthAdjust="spacing" textLength="120.5518" x="256.51" y="974.342">&#160; +answer: string</text><line style="stroke:#181818;stroke-width:0.5;" x1="251.51" x2="382.0618" y1="981.6438" y2="981.6438"/></g><!--link Permission to Role--><g id="link_Permission_Role"><path codeLine="49" d="M274.06,104.05 C268.19,113.42 263.03,123.57 259.78,133.89 C254.74,149.93 259.74,166.23 268.39,180.67 " fill="transparent" id="Permission-Role" style="stroke:#181818;stroke-width:1;"/><polygon fill="#000000" points="264.411,147.4428,268.0094,138.6392,262.1476,138.2055,264.411,147.4428" style="stroke:#000000;stroke-width:1;"/><text fill="#000000" font-family="sans-serif" font-size="13" lengthAdjust="spacing" textLength="48.3882" x="273.78" y="146.9569">assigns</text><text fill="#000000" font-family="sans-serif" font-size="13" lengthAdjust="spacing" textLength="23.0356" x="237.3926" y="169.848">0..*</text></g><!--link Role to Permission--><g id="link_Role_Permission"><path codeLine="51" d="M323.08,180.57 C324.62,170.79 325.98,160.54 326.78,150.89 C328.05,135.72 326.72,119.25 324.51,104.38 " fill="transparent" id="Role-Permission" style="stroke:#181818;stroke-width:1;"/><polygon fill="#000000" points="331.8738,137.4573,328.7657,146.4456,334.6425,146.5559,331.8738,137.4573" style="stroke:#000000;stroke-width:1;"/><text fill="#000000" font-family="sans-serif" font-size="13" lengthAdjust="spacing" textLength="41.6724" x="340.78" y="146.9569">grants</text><text fill="#000000" font-family="sans-serif" font-size="13" lengthAdjust="spacing" textLength="23.0356" x="301.4092" y="124.0392">0..*</text></g><!--link Role to User--><g id="link_Role_User"><path codeLine="50" d="M313.78,278.11 C313.78,301.55 313.78,329.93 313.78,354.38 " fill="transparent" id="Role-User" style="stroke:#181818;stroke-width:1;"/><polygon fill="#000000" points="318.78,321.3464,321.7189,312.3013,315.8411,312.3013,318.78,321.3464" style="stroke:#000000;stroke-width:1;"/><text fill="#000000" font-family="sans-serif" font-size="13" lengthAdjust="spacing" textLength="55.0278" x="327.78" y="320.8469">contains</text><text fill="#000000" font-family="sans-serif" font-size="13" lengthAdjust="spacing" textLength="23.0356" x="289.3802" y="343.5948">0..*</text></g><!--link User to Survey--><g id="link_User_Survey"><path codeLine="53" d="M313.78,468.35 C313.78,492.82 313.78,521.21 313.78,544.66 " fill="transparent" id="User-Survey" style="stroke:#181818;stroke-width:1;"/><polygon fill="#000000" points="318.78,511.5364,321.7189,502.4913,315.8411,502.4913,318.78,511.5364" style="stroke:#000000;stroke-width:1;"/><text fill="#000000" font-family="sans-serif" font-size="13" lengthAdjust="spacing" textLength="67.4946" x="327.78" y="511.0369">completes</text><text fill="#000000" font-family="sans-serif" font-size="13" lengthAdjust="spacing" textLength="23.0356" x="289.1656" y="533.8253">0..*</text></g><!--link Survey to Question--><g id="link_Survey_Question"><path codeLine="54" d="M276.9,642.19 C258.8,665.63 236.89,694.01 218.01,718.46 " fill="transparent" id="Survey-Question" style="stroke:#181818;stroke-width:1;"/><text fill="#000000" font-family="sans-serif" font-size="13" lengthAdjust="spacing" textLength="53.7266" x="253.78" y="684.9269">answers</text><text fill="#000000" font-family="sans-serif" font-size="13" lengthAdjust="spacing" textLength="23.0356" x="198.8789" y="707.6748">1..*</text></g><!--link Survey to Result--><g id="link_Survey_Result"><path codeLine="55" d="M350.93,642.19 C371.27,668.34 396.38,700.63 416.7,726.77 " fill="transparent" id="Survey-Result" style="stroke:#181818;stroke-width:1;"/><polygon fill="#000000" points="391.8493,684.3735,388.6169,675.4291,383.9769,679.0372,391.8493,684.3735" style="stroke:#000000;stroke-width:1;"/><text fill="#000000" font-family="sans-serif" font-size="13" lengthAdjust="spacing" textLength="65.6665" x="397.78" y="684.9269">generates</text><text fill="#000000" font-family="sans-serif" font-size="13" lengthAdjust="spacing" textLength="23.0356" x="386.8712" y="715.9452">1..*</text></g><!--link Question to AnswerOption--><g id="link_Question_AnswerOption"><path codeLine="56" d="M134.2,832.41 C129.09,841.9 124.65,851.96 121.78,862.05 C117.56,876.9 117.22,893.77 118.32,908.63 " fill="transparent" id="Question-AnswerOption" style="stroke:#181818;stroke-width:1;"/><text fill="#000000" font-family="sans-serif" font-size="13" lengthAdjust="spacing" textLength="22.9785" x="122.78" y="875.1169">has</text><text fill="#000000" font-family="sans-serif" font-size="13" lengthAdjust="spacing" textLength="23.0356" x="92.4599" y="898.0229">0..*</text></g><!--link Result to UserAnswer--><g id="link_Result_UserAnswer"><path codeLine="57" d="M420.98,824.28 C408.51,841.83 393.89,861.65 379.78,879.05 C371.79,888.9 362.83,899.18 354.22,908.71 " fill="transparent" id="Result-UserAnswer" style="stroke:#181818;stroke-width:1;"/><text fill="#000000" font-family="sans-serif" font-size="13" lengthAdjust="spacing" textLength="55.0278" x="392.78" y="875.1169">contains</text><text fill="#000000" font-family="sans-serif" font-size="13" lengthAdjust="spacing" textLength="23.0356" x="335.3561" y="898.1157">1..*</text></g><!--link UserAnswer to Question--><g id="link_UserAnswer_Question"><path codeLine="58" d="M303.36,908.89 C297,893.41 288.44,876.04 277.78,862.05 C269.82,851.6 260.36,841.59 250.44,832.34 " fill="transparent" id="UserAnswer-Question" style="stroke:#181818;stroke-width:1;"/><text fill="#000000" font-family="sans-serif" font-size="13" lengthAdjust="spacing" textLength="53.7266" x="289.78" y="875.1169">answers</text><text fill="#000000" font-family="sans-serif" font-size="13" lengthAdjust="spacing" textLength="23.0356" x="235.2613" y="852.2621">1..*</text></g><!--link Question to UserAnswer--><g id="link_Question_UserAnswer"><path codeLine="59" d="M168.62,832.46 C169.38,848.59 172.85,865.48 181.78,879.05 C197.65,903.14 224.64,919.3 250.34,929.91 " fill="transparent" id="Question-UserAnswer" style="stroke:#181818;stroke-width:1;"/><text fill="#000000" font-family="sans-serif" font-size="13" lengthAdjust="spacing" textLength="86.5884" x="182.78" y="875.1169">isAnsweredIn</text><text fill="#000000" font-family="sans-serif" font-size="13" lengthAdjust="spacing" textLength="23.0356" x="219.3037" y="924.2059">1..*</text></g><!--SRC=[fP9DJiCm48NtFiMeIsWhs7g1n98DvKUiaKb6gIN7jZmJIbJrBfo5an4xKU9018lkdF5xtxpC62rhRk41Gws9jBDm502NkfIWBSUZLJLA80xQLl6xH2g2zjnfn_992En1JyxWcOWNml0lmYZYdpMlY0ukb0lCvoQyOtjciCS6YPT6nFZ1EOPRts7HDZKSdKUxXi8umd8DTMDOUzE-5dkd2pmb4DrZWKGgj1BUd3FvE94wnvcvRoqTCEpyaFthSsB5yopzV0szSy6ZqaNkobxGPWEhg-tsOjM_1WdTNdHb2Mv4AaptQTKI2cTPwIL1HfLG1MKvYaJoJQfXkn5KUuECKJGKe-ewgSRrTO5IVFgj6URTzKABGVMaqJXrd8rKmbwH6AmJAnlWz8iYg_uPRTPq0QYfFs9vPxy1]--></g></svg>