<svg xmlns="http://www.w3.org/2000/svg" xmlns:xlink="http://www.w3.org/1999/xlink" contentStyleType="text/css" data-diagram-type="ACTIVITY" height="393px" preserveAspectRatio="none" style="width:938px;height:393px;background:#FFFFFF;" version="1.1" viewBox="0 0 938 393" width="938px" zoomAndPan="magnify"><defs/><g><rect fill="transparent" height="20.9531" style="stroke:transparent;stroke-width:1;" width="905.7993" x="15" y="12.7451"/><ellipse cx="152.6113" cy="48.6982" fill="#222222" rx="10" ry="10" style="stroke:#222222;stroke-width:1;"/><rect fill="#F1F1F1" height="33.9688" rx="12.5" ry="12.5" style="stroke:#181818;stroke-width:0.5;" width="263.2227" x="21" y="78.6982"/><text fill="#000000" font-family="sans-serif" font-size="12" lengthAdjust="spacing" textLength="243.2227" x="31" y="99.8369">&#1042;&#1080;&#1073;&#1080;&#1088;&#1072;&#1108; &#1086;&#1087;&#1080;&#1090;&#1091;&#1074;&#1072;&#1085;&#1085;&#1103; &#1076;&#1083;&#1103; &#1088;&#1077;&#1076;&#1072;&#1075;&#1091;&#1074;&#1072;&#1085;&#1085;&#1103;</text><rect fill="#F1F1F1" height="33.9688" rx="12.5" ry="12.5" style="stroke:#181818;stroke-width:0.5;" width="260.8789" x="22.1719" y="198.0654"/><text fill="#000000" font-family="sans-serif" font-size="12" lengthAdjust="spacing" textLength="240.8789" x="32.1719" y="219.2041">&#1042;&#1085;&#1086;&#1089;&#1080;&#1090;&#1100; &#1079;&#1084;&#1110;&#1085;&#1080; &#1076;&#1086; &#1076;&#1077;&#1090;&#1072;&#1083;&#1077;&#1081; &#1072;&#1073;&#1086; &#1087;&#1080;&#1090;&#1072;&#1085;&#1100;</text><rect fill="#F1F1F1" height="33.9688" rx="12.5" ry="12.5" style="stroke:#181818;stroke-width:0.5;" width="111.8984" x="96.6621" y="252.0342"/><text fill="#000000" font-family="sans-serif" font-size="12" lengthAdjust="spacing" textLength="91.8984" x="106.6621" y="273.1729">&#1047;&#1073;&#1077;&#1088;&#1110;&#1075;&#1072;&#1108; &#1079;&#1084;&#1110;&#1085;&#1080;</text><ellipse cx="152.6113" cy="370.9717" fill="transparent" rx="11" ry="11" style="stroke:#222222;stroke-width:1;"/><ellipse cx="152.6113" cy="370.9717" fill="#222222" rx="6" ry="6" style="stroke:#222222;stroke-width:1;"/><line style="stroke:#000000;stroke-width:1.5;" x1="15" x2="15" y1="12.7451" y2="381.9717"/><path d="M673.627,122.667 L673.627,146.3662 L653.627,150.3662 L673.627,154.3662 L673.627,178.0654 A0,0 0 0 0 673.627,178.0654 L913.9385,178.0654 A0,0 0 0 0 913.9385,178.0654 L913.9385,132.667 L903.9385,122.667 L673.627,122.667 A0,0 0 0 0 673.627,122.667 " fill="#FFAAAA" style="stroke:#181818;stroke-width:0.5;"/><path d="M903.9385,122.667 L903.9385,132.667 L913.9385,132.667 L903.9385,122.667 " fill="#FFAAAA" style="stroke:#181818;stroke-width:0.5;"/><text fill="#000000" font-family="sans-serif" font-size="13" font-weight="bold" lengthAdjust="spacing" textLength="62.4102" x="684.1528" y="139.7339">&#1042;&#1080;&#1085;&#1080;&#1082;&#1072;&#1108;</text><text fill="#000000" font-family="sans-serif" font-size="13" font-weight="bold" lengthAdjust="spacing" textLength="138.252" x="684.1528" y="154.8667">AccessDeniedError</text><text fill="#000000" font-family="sans-serif" font-size="13" font-weight="bold" lengthAdjust="spacing" textLength="214.7856" x="684.1528" y="169.9995">SurveyAlreadyLaunchedError</text><rect fill="#F1F1F1" height="33.9688" rx="12.5" ry="12.5" style="stroke:#181818;stroke-width:0.5;" width="359.4043" x="294.2227" y="133.3818"/><text fill="#000000" font-family="sans-serif" font-size="12" lengthAdjust="spacing" textLength="339.4043" x="304.2227" y="154.5205">&#1055;&#1077;&#1088;&#1077;&#1074;&#1110;&#1088;&#1103;&#1108;, &#1095;&#1080; &#1086;&#1087;&#1080;&#1090;&#1091;&#1074;&#1072;&#1085;&#1085;&#1103; &#1076;&#1086;&#1089;&#1090;&#1091;&#1087;&#1085;&#1077; &#1076;&#1083;&#1103; &#1088;&#1077;&#1076;&#1072;&#1075;&#1091;&#1074;&#1072;&#1085;&#1085;&#1103;</text><rect fill="#F1F1F1" height="33.9688" rx="12.5" ry="12.5" style="stroke:#181818;stroke-width:0.5;" width="154.291" x="396.7793" y="306.0029"/><text fill="#000000" font-family="sans-serif" font-size="12" lengthAdjust="spacing" textLength="134.291" x="406.7793" y="327.1416">&#1054;&#1085;&#1086;&#1074;&#1083;&#1102;&#1108; &#1086;&#1087;&#1080;&#1090;&#1091;&#1074;&#1072;&#1085;&#1085;&#1103;</text><line style="stroke:#000000;stroke-width:1.5;" x1="288.2227" x2="288.2227" y1="12.7451" y2="381.9717"/><line style="stroke:#000000;stroke-width:1.5;" x1="918.9385" x2="918.9385" y1="12.7451" y2="381.9717"/><line style="stroke:#181818;stroke-width:1;" x1="152.6113" x2="152.6113" y1="58.6982" y2="78.6982"/><polygon fill="#181818" points="148.6113,68.6982,152.6113,78.6982,156.6113,68.6982,152.6113,72.6982" style="stroke:#181818;stroke-width:1;"/><line style="stroke:#181818;stroke-width:1;" x1="152.6113" x2="152.6113" y1="232.0342" y2="252.0342"/><polygon fill="#181818" points="148.6113,242.0342,152.6113,252.0342,156.6113,242.0342,152.6113,246.0342" style="stroke:#181818;stroke-width:1;"/><line style="stroke:#181818;stroke-width:1;" x1="152.6113" x2="152.6113" y1="112.667" y2="117.667"/><line style="stroke:#181818;stroke-width:1;" x1="152.6113" x2="473.9248" y1="117.667" y2="117.667"/><line style="stroke:#181818;stroke-width:1;" x1="473.9248" x2="473.9248" y1="117.667" y2="133.3818"/><polygon fill="#181818" points="469.9248,123.3818,473.9248,133.3818,477.9248,123.3818,473.9248,127.3818" style="stroke:#181818;stroke-width:1;"/><line style="stroke:#181818;stroke-width:1;" x1="473.9248" x2="473.9248" y1="167.3506" y2="183.0654"/><line style="stroke:#181818;stroke-width:1;" x1="473.9248" x2="152.6113" y1="183.0654" y2="183.0654"/><line style="stroke:#181818;stroke-width:1;" x1="152.6113" x2="152.6113" y1="183.0654" y2="198.0654"/><polygon fill="#181818" points="148.6113,188.0654,152.6113,198.0654,156.6113,188.0654,152.6113,192.0654" style="stroke:#181818;stroke-width:1;"/><line style="stroke:#181818;stroke-width:1;" x1="152.6113" x2="152.6113" y1="286.0029" y2="291.0029"/><line style="stroke:#181818;stroke-width:1;" x1="152.6113" x2="473.9248" y1="291.0029" y2="291.0029"/><line style="stroke:#181818;stroke-width:1;" x1="473.9248" x2="473.9248" y1="291.0029" y2="306.0029"/><polygon fill="#181818" points="469.9248,296.0029,473.9248,306.0029,477.9248,296.0029,473.9248,300.0029" style="stroke:#181818;stroke-width:1;"/><line style="stroke:#181818;stroke-width:1;" x1="473.9248" x2="473.9248" y1="339.9717" y2="344.9717"/><line style="stroke:#181818;stroke-width:1;" x1="473.9248" x2="152.6113" y1="344.9717" y2="344.9717"/><line style="stroke:#181818;stroke-width:1;" x1="152.6113" x2="152.6113" y1="344.9717" y2="359.9717"/><polygon fill="#181818" points="148.6113,349.9717,152.6113,359.9717,156.6113,349.9717,152.6113,353.9717" style="stroke:#181818;stroke-width:1;"/><text fill="#000000" font-family="sans-serif" font-size="18" lengthAdjust="spacing" textLength="135.8701" x="83.6763" y="29.4531">&#1040;&#1076;&#1084;&#1110;&#1085;&#1110;&#1089;&#1090;&#1088;&#1072;&#1090;&#1086;&#1088;</text><text fill="#000000" font-family="sans-serif" font-size="18" lengthAdjust="spacing" textLength="80.332" x="563.4146" y="29.4531">&#1057;&#1080;&#1089;&#1090;&#1077;&#1084;&#1072;</text><!--SRC=[ZL51IiDG4Dtt51_SUW8ZGa5txZn1J7vjGHBvIOL25Z5Tk2bMfDITuWtIrc0qJNg5cHlvvhT8koXr8Cdapynx_xr9w9a-QSbJgddA3vnnIZbdr72Qj1GYYbqJEosRdz0BbJIZqZPD53Mqma_6GvfJJZKmnWfm5JveAP3cjDYk0YYX3yo02VKbvSa6-PqAEpB7DL8Uy-HOyIELUpaQUzaXYZKLXqY58WXZhKplfXkheqx7HTXZYTFhCsMbrNX-HDfEgUrvEehETT3J_eKneTcfNlNDlHwqRurs_S6bsm-yxdQR3dnBBS8FM2tsrYBCwXqf-bftYmiGBAy2_JbLKFcjaCparDeZMddaR71UKO6T65wi5_M7j7y1Ry8Dqof-shDQvnyQeZYyStu1]--></g></svg>