<svg xmlns="http://www.w3.org/2000/svg" xmlns:xlink="http://www.w3.org/1999/xlink" contentStyleType="text/css" data-diagram-type="ACTIVITY" height="340px" preserveAspectRatio="none" style="width:656px;height:340px;background:#FFFFFF;" version="1.1" viewBox="0 0 656 340" width="656px" zoomAndPan="magnify"><defs/><g><rect fill="transparent" height="20.9531" style="stroke:transparent;stroke-width:1;" width="623.8618" x="15" y="12.7451"/><ellipse cx="124.4429" cy="48.6982" fill="#222222" rx="10" ry="10" style="stroke:#222222;stroke-width:1;"/><rect fill="#F1F1F1" height="33.9688" rx="12.5" ry="12.5" style="stroke:#181818;stroke-width:0.5;" width="160.0156" x="44.4351" y="78.6982"/><text fill="#000000" font-family="sans-serif" font-size="12" lengthAdjust="spacing" textLength="140.0156" x="54.4351" y="99.8369">&#1047;&#1072;&#1074;&#1077;&#1088;&#1096;&#1091;&#1108; &#1086;&#1087;&#1080;&#1090;&#1091;&#1074;&#1072;&#1085;&#1085;&#1103;</text><rect fill="#F1F1F1" height="33.9688" rx="12.5" ry="12.5" style="stroke:#181818;stroke-width:0.5;" width="181.6191" x="33.6333" y="132.667"/><text fill="#000000" font-family="sans-serif" font-size="12" lengthAdjust="spacing" textLength="161.6191" x="43.6333" y="153.8057">&#1047;&#1072;&#1083;&#1080;&#1096;&#1072;&#1108; &#1074;&#1110;&#1076;&#1075;&#1091;&#1082; &#1090;&#1072; &#1086;&#1094;&#1110;&#1085;&#1082;&#1091;</text><ellipse cx="124.4429" cy="317.0029" fill="transparent" rx="11" ry="11" style="stroke:#222222;stroke-width:1;"/><ellipse cx="124.4429" cy="317.0029" fill="#222222" rx="6" ry="6" style="stroke:#222222;stroke-width:1;"/><line style="stroke:#000000;stroke-width:1.5;" x1="15" x2="15" y1="12.7451" y2="328.0029"/><path d="M481.4199,176.6357 L481.4199,200.335 L461.4199,204.335 L481.4199,208.335 L481.4199,232.0342 A0,0 0 0 0 481.4199,232.0342 L632.001,232.0342 A0,0 0 0 0 632.001,232.0342 L632.001,186.6357 L622.001,176.6357 L481.4199,176.6357 A0,0 0 0 0 481.4199,176.6357 " fill="#FFAAAA" style="stroke:#181818;stroke-width:0.5;"/><path d="M622.001,176.6357 L622.001,186.6357 L632.001,186.6357 L622.001,176.6357 " fill="#FFAAAA" style="stroke:#181818;stroke-width:0.5;"/><text fill="#000000" font-family="sans-serif" font-size="13" font-weight="bold" lengthAdjust="spacing" textLength="62.4102" x="491.9458" y="193.7026">&#1042;&#1080;&#1085;&#1080;&#1082;&#1072;&#1108;</text><text fill="#000000" font-family="sans-serif" font-size="13" font-weight="bold" lengthAdjust="spacing" textLength="125.0552" x="491.9458" y="208.8354">ReviewSaveError</text><text fill="#000000" font-family="sans-serif" font-size="13" font-weight="bold" lengthAdjust="spacing" textLength="106.3359" x="491.9458" y="223.9683">TechnicalError</text><rect fill="#F1F1F1" height="33.9688" rx="12.5" ry="12.5" style="stroke:#181818;stroke-width:0.5;" width="116.8438" x="344.5762" y="187.3506"/><text fill="#000000" font-family="sans-serif" font-size="12" lengthAdjust="spacing" textLength="96.8438" x="354.5762" y="208.4893">&#1047;&#1073;&#1077;&#1088;&#1110;&#1075;&#1072;&#1108; &#1074;&#1110;&#1076;&#1075;&#1091;&#1082;</text><rect fill="#F1F1F1" height="33.9688" rx="12.5" ry="12.5" style="stroke:#181818;stroke-width:0.5;" width="330.2246" x="237.8857" y="252.0342"/><text fill="#000000" font-family="sans-serif" font-size="12" lengthAdjust="spacing" textLength="310.2246" x="247.8857" y="273.1729">&#1042;&#1110;&#1076;&#1075;&#1091;&#1082; &#1076;&#1086;&#1089;&#1090;&#1091;&#1087;&#1085;&#1080;&#1081; &#1072;&#1076;&#1084;&#1110;&#1085;&#1110;&#1089;&#1090;&#1088;&#1072;&#1090;&#1086;&#1088;&#1091; &#1076;&#1083;&#1103; &#1087;&#1077;&#1088;&#1077;&#1075;&#1083;&#1103;&#1076;&#1091;</text><line style="stroke:#000000;stroke-width:1.5;" x1="231.8857" x2="231.8857" y1="12.7451" y2="328.0029"/><line style="stroke:#000000;stroke-width:1.5;" x1="637.001" x2="637.001" y1="12.7451" y2="328.0029"/><line style="stroke:#181818;stroke-width:1;" x1="124.4429" x2="124.4429" y1="58.6982" y2="78.6982"/><polygon fill="#181818" points="120.4429,68.6982,124.4429,78.6982,128.4429,68.6982,124.4429,72.6982" style="stroke:#181818;stroke-width:1;"/><line style="stroke:#181818;stroke-width:1;" x1="124.4429" x2="124.4429" y1="112.667" y2="132.667"/><polygon fill="#181818" points="120.4429,122.667,124.4429,132.667,128.4429,122.667,124.4429,126.667" style="stroke:#181818;stroke-width:1;"/><line style="stroke:#181818;stroke-width:1;" x1="402.998" x2="402.998" y1="221.3193" y2="252.0342"/><polygon fill="#181818" points="398.998,242.0342,402.998,252.0342,406.998,242.0342,402.998,246.0342" style="stroke:#181818;stroke-width:1;"/><line style="stroke:#181818;stroke-width:1;" x1="124.4429" x2="124.4429" y1="166.6357" y2="171.6357"/><line style="stroke:#181818;stroke-width:1;" x1="124.4429" x2="402.998" y1="171.6357" y2="171.6357"/><line style="stroke:#181818;stroke-width:1;" x1="402.998" x2="402.998" y1="171.6357" y2="187.3506"/><polygon fill="#181818" points="398.998,177.3506,402.998,187.3506,406.998,177.3506,402.998,181.3506" style="stroke:#181818;stroke-width:1;"/><line style="stroke:#181818;stroke-width:1;" x1="402.998" x2="402.998" y1="286.0029" y2="291.0029"/><line style="stroke:#181818;stroke-width:1;" x1="402.998" x2="124.4429" y1="291.0029" y2="291.0029"/><line style="stroke:#181818;stroke-width:1;" x1="124.4429" x2="124.4429" y1="291.0029" y2="306.0029"/><polygon fill="#181818" points="120.4429,296.0029,124.4429,306.0029,128.4429,296.0029,124.4429,300.0029" style="stroke:#181818;stroke-width:1;"/><text fill="#000000" font-family="sans-serif" font-size="18" lengthAdjust="spacing" textLength="206.8857" x="20" y="29.4531">&#1050;&#1086;&#1088;&#1080;&#1089;&#1090;&#1091;&#1074;&#1072;&#1095; (&#1045;&#1082;&#1089;&#1087;&#1077;&#1088;&#1090;)</text><text fill="#000000" font-family="sans-serif" font-size="18" lengthAdjust="spacing" textLength="80.332" x="394.2773" y="29.4531">&#1057;&#1080;&#1089;&#1090;&#1077;&#1084;&#1072;</text><!--SRC=[bL4xJiD04ErpYf5eu0eOqN41u08cR8WbPAF52eqBnvOWNQG8Z4J73KpiICQ9dIkykL5crm4I8GgccfttzhtvH7X3op4g7dF2AUR8-OaEyOAQnrXZmJ4dHr6F9Ev3LuTEp-R7U4KkR8DFEELdGYlqwai43HgUEZlSfO0JKHVcd3EKA8HP4oV8vIy_IgqHqrGC8hnt3M615VBeM-N3-cKeVkbqJduGAjBUpJ2aWy70bR1b4oTNfuGPAZ6fK9l_Uz2v6ddguS8TgJEj0xs7NQh-qFVwxkqFfFnhQ_PdhxET4ILfj-jTM_jFadsKM9cHERDGB1qbvXAS6lwIfzHjNsGByqIvNSr_xXNSEHi0]--></g></svg>