<svg xmlns="http://www.w3.org/2000/svg" xmlns:xlink="http://www.w3.org/1999/xlink" contentStyleType="text/css" data-diagram-type="DESCRIPTION" height="385px" preserveAspectRatio="none" style="width:1898px;height:385px;background:#FFFFFF;" version="1.1" viewBox="0 0 1898 385" width="1898px" zoomAndPan="magnify"><defs/><g><!--entity ?????????????--><g id="elem_&#1040;&#1076;&#1084;&#1110;&#1085;&#1110;&#1089;&#1090;&#1088;&#1072;&#1090;&#1086;&#1088;"><ellipse cx="477.8184" cy="14" fill="#F1F1F1" rx="8" ry="8" style="stroke:#181818;stroke-width:0.5;"/><path d="M477.8184,22 L477.8184,49 M464.8184,30 L490.8184,30 M477.8184,49 L464.8184,64 M477.8184,49 L490.8184,64 " fill="transparent" style="stroke:#181818;stroke-width:0.5;"/><text fill="#000000" font-family="sans-serif" font-size="14" lengthAdjust="spacing" textLength="105.6768" x="424.98" y="78.4951">&#1040;&#1076;&#1084;&#1110;&#1085;&#1110;&#1089;&#1090;&#1088;&#1072;&#1090;&#1086;&#1088;</text></g><!--entity ???????--><g id="elem_&#1045;&#1082;&#1089;&#1087;&#1077;&#1088;&#1090;"><ellipse cx="1544.8138" cy="14" fill="#F1F1F1" rx="8" ry="8" style="stroke:#181818;stroke-width:0.5;"/><path d="M1544.8138,22 L1544.8138,49 M1531.8138,30 L1557.8138,30 M1544.8138,49 L1531.8138,64 M1544.8138,49 L1557.8138,64 " fill="transparent" style="stroke:#181818;stroke-width:0.5;"/><text fill="#000000" font-family="sans-serif" font-size="14" lengthAdjust="spacing" textLength="59.8076" x="1514.91" y="78.4951">&#1045;&#1082;&#1089;&#1087;&#1077;&#1088;&#1090;</text></g><!--entity ???????--><g id="elem_&#1057;&#1080;&#1089;&#1090;&#1077;&#1084;&#1072;"><ellipse cx="919.8102" cy="167.3" fill="#F1F1F1" rx="8" ry="8" style="stroke:#181818;stroke-width:0.5;"/><path d="M919.8102,175.3 L919.8102,202.3 M906.8102,183.3 L932.8102,183.3 M919.8102,202.3 L906.8102,217.3 M919.8102,202.3 L932.8102,217.3 " fill="transparent" style="stroke:#181818;stroke-width:0.5;"/><text fill="#000000" font-family="sans-serif" font-size="14" lengthAdjust="spacing" textLength="62.4805" x="888.57" y="231.7951">&#1057;&#1080;&#1089;&#1090;&#1077;&#1084;&#1072;</text></g><g id="elem_SurveyCreation"><ellipse cx="108.8147" cy="345.6529" fill="#F1F1F1" rx="102.8147" ry="22.9629" style="stroke:#181818;stroke-width:0.5;"/><text fill="#000000" font-family="sans-serif" font-size="14" lengthAdjust="spacing" textLength="170.2422" x="23.6936" y="348.4996">&#1057;&#1090;&#1074;&#1086;&#1088;&#1077;&#1085;&#1085;&#1103; &#1086;&#1087;&#1080;&#1090;&#1091;&#1074;&#1072;&#1085;&#1085;&#1103;</text></g><g id="elem_SurveyEditing"><ellipse cx="356.8141" cy="345.6508" fill="#F1F1F1" rx="109.9541" ry="24.3908" style="stroke:#181818;stroke-width:0.5;"/><text fill="#000000" font-family="sans-serif" font-size="14" lengthAdjust="spacing" textLength="185.7803" x="263.924" y="348.4975">&#1056;&#1077;&#1076;&#1072;&#1075;&#1091;&#1074;&#1072;&#1085;&#1085;&#1103; &#1086;&#1087;&#1080;&#1090;&#1091;&#1074;&#1072;&#1085;&#1085;&#1103;</text></g><g id="elem_SurveyResultsReview"><ellipse cx="643.8064" cy="345.6513" fill="#F1F1F1" rx="142.2064" ry="30.8413" style="stroke:#181818;stroke-width:0.5;"/><text fill="#000000" font-family="sans-serif" font-size="14" lengthAdjust="spacing" textLength="254.2217" x="516.6956" y="348.498">&#1055;&#1077;&#1088;&#1077;&#1075;&#1083;&#1103;&#1076; &#1088;&#1077;&#1079;&#1091;&#1083;&#1100;&#1090;&#1072;&#1090;&#1110;&#1074; &#1086;&#1087;&#1080;&#1090;&#1091;&#1074;&#1072;&#1085;&#1085;&#1103;</text></g><g id="elem_SurveyCompletionProcess"><ellipse cx="1414.8099" cy="345.648" fill="#F1F1F1" rx="113.6399" ry="25.128" style="stroke:#181818;stroke-width:0.5;"/><text fill="#000000" font-family="sans-serif" font-size="14" lengthAdjust="spacing" textLength="193.7305" x="1317.9446" y="348.4947">&#1055;&#1088;&#1086;&#1093;&#1086;&#1076;&#1078;&#1077;&#1085;&#1085;&#1103; &#1086;&#1087;&#1080;&#1090;&#1091;&#1074;&#1072;&#1085;&#1085;&#1103;</text></g><g id="elem_SurveyReviewByExpertProcess"><ellipse cx="1724.8074" cy="345.6535" fill="#F1F1F1" rx="90.0674" ry="20.4135" style="stroke:#181818;stroke-width:0.5;"/><text fill="#000000" font-family="sans-serif" font-size="14" lengthAdjust="spacing" textLength="141.8936" x="1653.8606" y="348.5002">&#1054;&#1094;&#1110;&#1085;&#1082;&#1072; &#1086;&#1087;&#1080;&#1090;&#1091;&#1074;&#1072;&#1085;&#1085;&#1103;</text></g><g id="elem_UserRegistration"><ellipse cx="976.81" cy="345.648" fill="#F1F1F1" rx="155.79" ry="33.558" style="stroke:#181818;stroke-width:0.5;"/><text fill="#000000" font-family="sans-serif" font-size="14" lengthAdjust="spacing" textLength="282.5156" x="835.5522" y="348.4947">&#1056;&#1077;&#1108;&#1089;&#1090;&#1088;&#1072;&#1094;&#1110;&#1103; &#1082;&#1086;&#1088;&#1080;&#1089;&#1090;&#1091;&#1074;&#1072;&#1095;&#1072; &#1085;&#1072; &#1087;&#1083;&#1072;&#1090;&#1092;&#1086;&#1088;&#1084;&#1110;</text></g><!--link ????????????? to ???????--><g id="link_&#1040;&#1076;&#1084;&#1110;&#1085;&#1110;&#1089;&#1090;&#1088;&#1072;&#1090;&#1086;&#1088;_&#1057;&#1080;&#1089;&#1090;&#1077;&#1084;&#1072;"><path d="M531.13,62.9 C624.12,94.73 807.5233,157.507 882.4933,183.167 " fill="transparent" id="&#1040;&#1076;&#1084;&#1110;&#1085;&#1110;&#1089;&#1090;&#1088;&#1072;&#1090;&#1086;&#1088;-to-&#1057;&#1080;&#1089;&#1090;&#1077;&#1084;&#1072;" style="stroke:#181818;stroke-width:1;"/><polygon fill="#181818" points="888.17,185.11,880.9503,178.4111,883.4394,183.4909,878.3596,185.98,888.17,185.11" style="stroke:#181818;stroke-width:1;"/><text fill="#000000" font-family="sans-serif" font-size="13" lengthAdjust="spacing" textLength="83.9414" x="713.81" y="124.8669">&#1040;&#1074;&#1090;&#1086;&#1088;&#1080;&#1079;&#1072;&#1094;&#1110;&#1103;</text></g><!--link ????????????? to SurveyCreation--><g id="link_&#1040;&#1076;&#1084;&#1110;&#1085;&#1110;&#1089;&#1090;&#1088;&#1072;&#1090;&#1086;&#1088;_SurveyCreation"><path d="M424.61,54.28 C363.13,67.88 262.19,98.14 197.81,158.8 C148.73,205.04 125.1637,278.1363 115.3637,316.5363 " fill="transparent" id="&#1040;&#1076;&#1084;&#1110;&#1085;&#1110;&#1089;&#1090;&#1088;&#1072;&#1090;&#1086;&#1088;-to-SurveyCreation" style="stroke:#181818;stroke-width:1;"/><polygon fill="#181818" points="113.88,322.35,119.9813,314.6186,115.1164,317.5053,112.2298,312.6404,113.88,322.35" style="stroke:#181818;stroke-width:1;"/><text fill="#000000" font-family="sans-serif" font-size="13" lengthAdjust="spacing" textLength="158.082" x="198.81" y="201.5169">&#1057;&#1090;&#1074;&#1086;&#1088;&#1077;&#1085;&#1085;&#1103; &#1086;&#1087;&#1080;&#1090;&#1091;&#1074;&#1072;&#1085;&#1085;&#1103;</text></g><!--link ????????????? to SurveyEditing--><g id="link_&#1040;&#1076;&#1084;&#1110;&#1085;&#1110;&#1089;&#1090;&#1088;&#1072;&#1090;&#1086;&#1088;_SurveyEditing"><path d="M439.63,82.24 C420.75,103.05 399.38,130.41 386.81,158.8 C362.68,213.35 357.8517,278.5717 356.9917,314.9817 " fill="transparent" id="&#1040;&#1076;&#1084;&#1110;&#1085;&#1110;&#1089;&#1090;&#1088;&#1072;&#1090;&#1086;&#1088;-to-SurveyEditing" style="stroke:#181818;stroke-width:1;"/><polygon fill="#181818" points="356.85,320.98,361.0614,312.077,356.9681,315.9814,353.0636,311.8881,356.85,320.98" style="stroke:#181818;stroke-width:1;"/><text fill="#000000" font-family="sans-serif" font-size="13" lengthAdjust="spacing" textLength="172.5103" x="387.81" y="201.5169">&#1056;&#1077;&#1076;&#1072;&#1075;&#1091;&#1074;&#1072;&#1085;&#1085;&#1103; &#1086;&#1087;&#1080;&#1090;&#1091;&#1074;&#1072;&#1085;&#1085;&#1103;</text></g><!--link ????????????? to SurveyResultsReview--><g id="link_&#1040;&#1076;&#1084;&#1110;&#1085;&#1110;&#1089;&#1090;&#1088;&#1072;&#1090;&#1086;&#1088;_SurveyResultsReview"><path d="M510.13,82.06 C527.71,103.58 549.04,131.65 564.81,158.8 C595.12,210.93 618.3729,271.2521 631.6729,308.9321 " fill="transparent" id="&#1040;&#1076;&#1084;&#1110;&#1085;&#1110;&#1089;&#1090;&#1088;&#1072;&#1090;&#1086;&#1088;-to-SurveyResultsReview" style="stroke:#181818;stroke-width:1;"/><polygon fill="#181818" points="633.67,314.59,634.4463,304.7718,632.0058,309.8751,626.9025,307.4346,633.67,314.59" style="stroke:#181818;stroke-width:1;"/><text fill="#000000" font-family="sans-serif" font-size="13" lengthAdjust="spacing" textLength="151.3154" x="602.81" y="201.5169">&#1055;&#1077;&#1088;&#1077;&#1075;&#1083;&#1103;&#1076; &#1088;&#1077;&#1079;&#1091;&#1083;&#1100;&#1090;&#1072;&#1090;&#1110;&#1074;</text></g><!--link ??????? to ???????--><g id="link_&#1045;&#1082;&#1089;&#1087;&#1077;&#1088;&#1090;_&#1057;&#1080;&#1089;&#1090;&#1077;&#1084;&#1072;"><path d="M1514.67,51.95 C1409.45,77.42 1064.9116,160.8184 957.3316,186.8584 " fill="transparent" id="&#1045;&#1082;&#1089;&#1087;&#1077;&#1088;&#1090;-to-&#1057;&#1080;&#1089;&#1090;&#1077;&#1084;&#1072;" style="stroke:#181818;stroke-width:1;"/><polygon fill="#181818" points="951.5,188.27,961.1884,190.0404,956.3597,187.0937,959.3064,182.2649,951.5,188.27" style="stroke:#181818;stroke-width:1;"/><text fill="#000000" font-family="sans-serif" font-size="13" lengthAdjust="spacing" textLength="83.9414" x="1252.81" y="124.8669">&#1040;&#1074;&#1090;&#1086;&#1088;&#1080;&#1079;&#1072;&#1094;&#1110;&#1103;</text></g><!--link ??????? to SurveyCompletionProcess--><g id="link_&#1045;&#1082;&#1089;&#1087;&#1077;&#1088;&#1090;_SurveyCompletionProcess"><path d="M1551.27,82.16 C1557.78,132.01 1561.97,220.89 1522.81,282.09 C1511.08,300.44 1497.2475,311.2794 1478.2975,321.0094 " fill="transparent" id="&#1045;&#1082;&#1089;&#1087;&#1077;&#1088;&#1090;-to-SurveyCompletionProcess" style="stroke:#181818;stroke-width:1;"/><polygon fill="#181818" points="1472.96,323.75,1482.7933,323.1975,1477.4079,321.4662,1479.1392,316.0808,1472.96,323.75" style="stroke:#181818;stroke-width:1;"/><text fill="#000000" font-family="sans-serif" font-size="13" lengthAdjust="spacing" textLength="179.8926" x="1555.81" y="201.5169">&#1055;&#1088;&#1086;&#1093;&#1086;&#1076;&#1078;&#1077;&#1085;&#1085;&#1103; &#1086;&#1087;&#1080;&#1090;&#1091;&#1074;&#1072;&#1085;&#1085;&#1103;</text></g><!--link ??????? to SurveyReviewByExpertProcess--><g id="link_&#1045;&#1082;&#1089;&#1087;&#1077;&#1088;&#1090;_SurveyReviewByExpertProcess"><path d="M1574.84,51.71 C1620.82,64.33 1707.18,95.55 1743.81,158.8 C1774.78,212.26 1751.4778,283.5442 1736.3278,319.3542 " fill="transparent" id="&#1045;&#1082;&#1089;&#1087;&#1077;&#1088;&#1090;-to-SurveyReviewByExpertProcess" style="stroke:#181818;stroke-width:1;"/><polygon fill="#181818" points="1733.99,324.88,1741.1806,318.1498,1735.9382,320.2751,1733.8128,315.0327,1733.99,324.88" style="stroke:#181818;stroke-width:1;"/><text fill="#000000" font-family="sans-serif" font-size="13" lengthAdjust="spacing" textLength="131.7583" x="1758.81" y="201.5169">&#1054;&#1094;&#1110;&#1085;&#1082;&#1072; &#1086;&#1087;&#1080;&#1090;&#1091;&#1074;&#1072;&#1085;&#1085;&#1103;</text></g><!--link ??????? to UserRegistration--><g id="link_&#1057;&#1080;&#1089;&#1090;&#1077;&#1084;&#1072;_UserRegistration"><path d="M934.35,235.35 C943.52,258.95 953.0775,283.5471 961.8875,306.2271 " fill="transparent" id="&#1057;&#1080;&#1089;&#1090;&#1077;&#1084;&#1072;-to-UserRegistration" style="stroke:#181818;stroke-width:1;"/><polygon fill="#181818" points="964.06,311.82,964.5298,301.9824,962.2496,307.1593,957.0726,304.8791,964.06,311.82" style="stroke:#181818;stroke-width:1;"/><text fill="#000000" font-family="sans-serif" font-size="13" lengthAdjust="spacing" textLength="167.8257" x="952.81" y="278.1569">&#1056;&#1077;&#1108;&#1089;&#1090;&#1088;&#1072;&#1094;&#1110;&#1103; &#1082;&#1086;&#1088;&#1080;&#1089;&#1090;&#1091;&#1074;&#1072;&#1095;&#1110;&#1074;</text></g><!--link ??????? to SurveyCreation--><g id="link_&#1057;&#1080;&#1089;&#1090;&#1077;&#1084;&#1072;_SurveyCreation"><path d="M888.33,206.95 C857.21,215.5 808.11,228.07 764.81,235.09 C612.45,259.82 571.07,239.72 418.81,265.09 C333.43,279.32 313.61,290.4 229.81,312.09 C211.18,316.92 196.7539,320.7409 178.2839,325.7109 " fill="transparent" id="&#1057;&#1080;&#1089;&#1090;&#1077;&#1084;&#1072;-to-SurveyCreation" style="stroke:#181818;stroke-width:1;"/><polygon fill="#181818" points="172.49,327.27,182.2202,328.794,177.3183,325.9708,180.1415,321.0688,172.49,327.27" style="stroke:#181818;stroke-width:1;"/><text fill="#000000" font-family="sans-serif" font-size="13" lengthAdjust="spacing" textLength="169.876" x="419.81" y="278.1569">&#1047;&#1073;&#1077;&#1088;&#1077;&#1078;&#1077;&#1085;&#1085;&#1103; &#1086;&#1087;&#1080;&#1090;&#1091;&#1074;&#1072;&#1085;&#1085;&#1103;</text></g><!--link ??????? to SurveyEditing--><g id="link_&#1057;&#1080;&#1089;&#1090;&#1077;&#1084;&#1072;_SurveyEditing"><path d="M888.37,205.78 C838.71,218.17 739.1,243.17 654.81,265.09 C575.91,285.62 491.2527,308.3066 430.8927,324.5966 " fill="transparent" id="&#1057;&#1080;&#1089;&#1090;&#1077;&#1084;&#1072;-to-SurveyEditing" style="stroke:#181818;stroke-width:1;"/><polygon fill="#181818" points="425.1,326.16,434.8314,327.6768,429.9273,324.8572,432.7469,319.9531,425.1,326.16" style="stroke:#181818;stroke-width:1;"/><text fill="#000000" font-family="sans-serif" font-size="13" lengthAdjust="spacing" textLength="108.7925" x="655.81" y="278.1569">&#1047;&#1073;&#1077;&#1088;&#1110;&#1075;&#1072;&#1085;&#1085;&#1103; &#1079;&#1084;&#1110;&#1085;</text></g><!--link ??????? to SurveyResultsReview--><g id="link_&#1057;&#1080;&#1089;&#1090;&#1077;&#1084;&#1072;_SurveyResultsReview"><path d="M888.33,216.8 C858.8,234.29 813.25,260.75 772.81,282.09 C750.14,294.06 730.2403,303.936 708.0903,314.556 " fill="transparent" id="&#1057;&#1080;&#1089;&#1090;&#1077;&#1084;&#1072;-to-SurveyResultsReview" style="stroke:#181818;stroke-width:1;"/><polygon fill="#181818" points="702.68,317.15,712.5248,316.8658,707.1886,314.9883,709.0661,309.6521,702.68,317.15" style="stroke:#181818;stroke-width:1;"/><text fill="#000000" font-family="sans-serif" font-size="13" lengthAdjust="spacing" textLength="110.0874" x="802.81" y="278.1569">&#1043;&#1077;&#1085;&#1077;&#1088;&#1072;&#1094;&#1110;&#1103; &#1079;&#1074;&#1110;&#1090;&#1110;&#1074;</text></g><!--link ??????? to SurveyCompletionProcess--><g id="link_&#1057;&#1080;&#1089;&#1090;&#1077;&#1084;&#1072;_SurveyCompletionProcess"><path d="M951.25,207.16 C992.38,219.43 1066.57,242.23 1128.81,265.09 C1147.33,271.89 1151.1,275.86 1169.81,282.09 C1224.17,300.2 1280.926,314.7406 1329.246,325.9806 " fill="transparent" id="&#1057;&#1080;&#1089;&#1090;&#1077;&#1084;&#1072;-to-SurveyCompletionProcess" style="stroke:#181818;stroke-width:1;"/><polygon fill="#181818" points="1335.09,327.34,1327.2303,321.4049,1330.22,326.2072,1325.4178,329.1969,1335.09,327.34" style="stroke:#181818;stroke-width:1;"/><text fill="#000000" font-family="sans-serif" font-size="13" lengthAdjust="spacing" textLength="162.6841" x="1170.81" y="278.1569">&#1047;&#1073;&#1077;&#1088;&#1077;&#1078;&#1077;&#1085;&#1085;&#1103; &#1074;&#1110;&#1076;&#1087;&#1086;&#1074;&#1110;&#1076;&#1077;&#1081;</text></g><!--link ??????? to SurveyReviewByExpertProcess--><g id="link_&#1057;&#1080;&#1089;&#1090;&#1077;&#1084;&#1072;_SurveyReviewByExpertProcess"><path d="M951.36,202.53 C1021.16,212.79 1193.94,238.76 1337.81,265.09 C1452.35,286.06 1579.2862,312.9288 1655.7662,329.5088 " fill="transparent" id="&#1057;&#1080;&#1089;&#1090;&#1077;&#1084;&#1072;-to-SurveyReviewByExpertProcess" style="stroke:#181818;stroke-width:1;"/><polygon fill="#181818" points="1661.63,330.78,1653.6818,324.964,1656.7435,329.7207,1651.9868,332.7824,1661.63,330.78" style="stroke:#181818;stroke-width:1;"/><text fill="#000000" font-family="sans-serif" font-size="13" lengthAdjust="spacing" textLength="143.1714" x="1423.81" y="278.1569">&#1047;&#1073;&#1077;&#1088;&#1077;&#1078;&#1077;&#1085;&#1085;&#1103; &#1074;&#1110;&#1076;&#1075;&#1091;&#1082;&#1110;&#1074;</text></g><!--SRC=[bPFDJi9058NtVOf9zxo02nSQzWRZ0pGu8KsGaav1sG7-RKmWKN6dyWOLMelbxnNkl95tPgYsqDAo8MKwzvjpvfmQLSUo2Gp1WmKVmPAFU8_tUHTSteSLxsg6sl0A8U_16dpUvVreSGmpiHjyM82hQIr6gmQZH8SnBax4EBvQ8dH0O8N3CoJVuWjNBUh4OEIyPRTfvzIcXcDQZHZZ4sSzt3gDZ-HnofUcOpPgCSo7a8oeASpv03mY_mGuFkTFg19jekr97hT2MQlki0fjc_GwJaVSYj_Zj0VVXSrQLyqw5NRFRAjA6Oi1t_c3Y052SFCr2J4ddV9DazhEBWelaB_yfObOeIoKgSZO59O_YfEMucSDStaVTt8Fra4UTi6eNQ4rapcsYaZBRWifbOwtQa6EKCeG9ce3p228nEXve6Gr9AXWiOgHDsMHu0FQLWoUQ8myebWJTRpVnCTsw9tk3cUqJeagNk1iT6eJ9JwtpkWsQKrGjoiN9LIepkeIKwWfTNg3hqqekTwpUF4IRN2eOFfVeK1LPGzYjohFKeqVTnfWtAEe8jdkKaDEjOaup7oDTjMJ3pzxDMP5l0SkFgPGAlu5]--></g></svg>